<?xml version="1.0" encoding="UTF-8" standalone="no"?>
<!-- Generator: Adobe Illustrator 23.1.1, SVG Export Plug-In . SVG Version: 6.00 Build 0)  -->

<svg
   version="1.1"
   id="Layer_1"
   x="0px"
   y="0px"
   viewBox="0 0 1236.2477 1060.3263"
   xml:space="preserve"
   sodipodi:docname="api-shapes.svg"
   width="1236.2478"
   height="1060.3263"
   inkscape:version="1.1.2 (0a00cf5339, 2022-02-04)"
   xmlns:inkscape="http://www.inkscape.org/namespaces/inkscape"
   xmlns:sodipodi="http://sodipodi.sourceforge.net/DTD/sodipodi-0.dtd"
   xmlns="http://www.w3.org/2000/svg"
   xmlns:svg="http://www.w3.org/2000/svg"><defs
   id="defs512">
	
	
	
	
	
	
	
	
	
		
	
	
	
		
	
	
	
	
	
	
	
	
	
	
	
	
	
	
	
	
	
	
	
	
	
	
	
	
	
	
	
	
	
	
	
	
	
	
	
	
	
	
	
	
	
	

		
		
		
		
	
		
		
	
		
		
		
	</defs><sodipodi:namedview
   id="namedview510"
   pagecolor="#505050"
   bordercolor="#eeeeee"
   borderopacity="1"
   inkscape:pageshadow="0"
   inkscape:pageopacity="0"
   inkscape:pagecheckerboard="0"
   showgrid="false"
   showguides="true"
   inkscape:guide-bbox="true"
   inkscape:zoom="5.4079526"
   inkscape:cx="585.98886"
   inkscape:cy="535.78502"
   inkscape:window-width="1920"
   inkscape:window-height="1019"
   inkscape:window-x="0"
   inkscape:window-y="0"
   inkscape:window-maximized="1"
   inkscape:current-layer="Layer_1"><sodipodi:guide
     position="624.92748,196.82801"
     orientation="1,0"
     id="guide56554" /></sodipodi:namedview>
<style
   type="text/css"
   id="style2">
	.st0{fill:#DCE2E1;}
	.st1{fill:#444E59;}
	.st2{opacity:0.28;fill:#848484;}
	.st3{fill:#F09F54;}
	.st4{opacity:0.29;fill:#F09F54;}
	.st5{fill:none;stroke:#444E59;stroke-width:4;stroke-linecap:round;stroke-linejoin:round;stroke-miterlimit:10;}
	.st6{fill:none;stroke:#444E59;stroke-width:3;stroke-linecap:round;stroke-linejoin:round;stroke-miterlimit:10;}
	.st7{fill:#848484;}
	.st8{opacity:0.25;fill:#848484;}
	.st9{fill:#FFFFFF;}
	.st10{fill:#71A850;}
	.st11{opacity:0.4;fill:#71A850;}
	.st12{opacity:0.48;fill:#848484;}
	.st13{fill:#E9FBFF;}
	.st14{fill:#C9C9C9;}
	.st15{fill:none;stroke:#444E59;stroke-width:5;stroke-linecap:round;stroke-linejoin:round;stroke-miterlimit:10;}
	.st16{opacity:0.29;fill:#848484;}
	.st17{opacity:0.3;}
	.st18{fill:none;stroke:#444E59;stroke-width:2;stroke-linecap:round;stroke-linejoin:round;stroke-dasharray:4.0794,4.0794;}
	.st19{opacity:0.52;fill:#5F8C42;}
	.st20{opacity:0.52;fill:#D38444;}
	.st21{fill:#2FA9ED;}
	.st22{opacity:0.52;fill:#288FBC;}
	.st23{fill:#E7534E;}
	.st24{opacity:0.52;fill:#BF4040;}
	.st25{fill:none;stroke:#FFFFFF;stroke-width:4;stroke-linecap:round;stroke-linejoin:round;stroke-miterlimit:10;}
	.st26{opacity:0.29;}
	.st27{fill:#BCBCBC;}
	.st28{fill:none;stroke:#64BDFF;stroke-width:4;stroke-linecap:round;stroke-linejoin:round;stroke-miterlimit:10;}
	.st29{fill:none;stroke:#FF5F5F;stroke-width:4;stroke-linecap:round;stroke-linejoin:round;stroke-miterlimit:10;}
	.st30{fill:none;stroke:#FFBE78;stroke-width:4;stroke-linecap:round;stroke-linejoin:round;stroke-miterlimit:10;}
	.st31{fill:none;stroke:#C383F2;stroke-width:4;stroke-linecap:round;stroke-linejoin:round;stroke-miterlimit:10;}
	.st32{fill:none;stroke:#6DBF7B;stroke-width:4;stroke-linecap:round;stroke-linejoin:round;stroke-miterlimit:10;}
	.st33{fill:#9483C4;}
	.st34{opacity:0.56;fill:none;stroke:#FFFFFF;stroke-width:3;stroke-linecap:round;stroke-linejoin:round;stroke-miterlimit:10;}
	.st35{opacity:0.56;}
	.st36{fill:none;stroke:#FFFFFF;stroke-width:3;stroke-linecap:round;stroke-linejoin:round;stroke-miterlimit:10;}
</style>




<path
   id="XMLID_183_-2"
   class="st1"
   d="m 432.08522,618.25492 h -123.7 c -4.1,0 -7.4,-3.3 -7.4,-7.4 v -84.6 c 0,-4.1 3.3,-7.4 7.4,-7.4 h 123.8 c 4.1,0 7.4,3.3 7.4,7.4 v 84.6 c -0.1,4.1 -3.4,7.4 -7.5,7.4 z" /><path
   id="XMLID_134_-7"
   class="st27"
   d="m 439.48522,534.95492 h -138.5 v -8.7 c 0,-4.1 3.3,-7.4 7.4,-7.4 h 123.8 c 4.1,0 7.4,3.3 7.4,7.4 v 8.7 z" /><path
   id="XMLID_132_-2"
   class="st5"
   d="m 432.08522,618.25492 h -123.7 c -4.1,0 -7.4,-3.3 -7.4,-7.4 v -84.6 c 0,-4.1 3.3,-7.4 7.4,-7.4 h 123.8 c 4.1,0 7.4,3.3 7.4,7.4 v 84.6 c -0.1,4.1 -3.4,7.4 -7.5,7.4 z" /><path
   id="XMLID_182_-2"
   class="st5"
   d="m 432.08522,618.25492 h -123.7 c -4.1,0 -7.4,-3.3 -7.4,-7.4 v -84.6 c 0,-4.1 3.3,-7.4 7.4,-7.4 h 123.8 c 4.1,0 7.4,3.3 7.4,7.4 v 84.6 c -0.1,4.1 -3.4,7.4 -7.5,7.4 z" /><path
   id="XMLID_133_-6"
   class="st5"
   d="m 439.48522,534.95492 h -138.5 v -8.7 c 0,-4.1 3.3,-7.4 7.4,-7.4 h 123.8 c 4.1,0 7.4,3.3 7.4,7.4 v 8.7 z" /><line
   id="XMLID_172_-6"
   class="st25"
   x1="320.08524"
   y1="605.55487"
   x2="335.68524"
   y2="605.55487" /><line
   id="XMLID_171_-1"
   class="st25"
   x1="309.08524"
   y1="605.55487"
   x2="310.18524"
   y2="605.55487" /><line
   id="XMLID_168_-9"
   class="st25"
   x1="320.08524"
   y1="596.9549"
   x2="359.58524"
   y2="596.9549" /><line
   id="XMLID_167_-4"
   class="st25"
   x1="309.08524"
   y1="596.9549"
   x2="310.18524"
   y2="596.9549" /><line
   id="XMLID_163_-0"
   class="st28"
   x1="378.38522"
   y1="588.25494"
   x2="389.18524"
   y2="588.25494" /><line
   id="XMLID_185_-9"
   class="st25"
   x1="348.98523"
   y1="588.25494"
   x2="368.98523"
   y2="588.25494" /><line
   id="XMLID_164_-1"
   class="st29"
   x1="320.08524"
   y1="588.25494"
   x2="339.88522"
   y2="588.25494" /><line
   id="XMLID_162_-7"
   class="st25"
   x1="309.08524"
   y1="588.25494"
   x2="310.18524"
   y2="588.25494" /><line
   id="XMLID_173_-1"
   class="st25"
   x1="353.38522"
   y1="579.65485"
   x2="401.58524"
   y2="579.65485" /><line
   id="XMLID_159_-1"
   class="st28"
   x1="320.08524"
   y1="579.65485"
   x2="345.28525"
   y2="579.65485" /><line
   id="XMLID_158_-5"
   class="st25"
   x1="309.08524"
   y1="579.65485"
   x2="310.18524"
   y2="579.65485" /><line
   id="XMLID_170_-7"
   class="st29"
   x1="353.38522"
   y1="571.05487"
   x2="371.38522"
   y2="571.05487" /><line
   id="XMLID_155_-7"
   class="st30"
   x1="320.08524"
   y1="571.05487"
   x2="345.28525"
   y2="571.05487" /><line
   id="XMLID_154_-6"
   class="st25"
   x1="309.08524"
   y1="571.05487"
   x2="310.18524"
   y2="571.05487" /><line
   id="XMLID_157_-3"
   class="st28"
   x1="356.88522"
   y1="562.4549"
   x2="361.78525"
   y2="562.4549" /><line
   id="XMLID_161_-6"
   class="st29"
   x1="337.88522"
   y1="562.4549"
   x2="348.98523"
   y2="562.4549" /><line
   id="XMLID_151_-5"
   class="st31"
   x1="320.08524"
   y1="562.4549"
   x2="329.28522"
   y2="562.4549" /><line
   id="XMLID_150_-6"
   class="st25"
   x1="309.08524"
   y1="562.4549"
   x2="310.18524"
   y2="562.4549" /><line
   id="XMLID_137_-9"
   class="st28"
   x1="392.88522"
   y1="553.75494"
   x2="401.58524"
   y2="553.75494" /><line
   id="XMLID_149_-4"
   class="st29"
   x1="347.78525"
   y1="553.75494"
   x2="381.88522"
   y2="553.75494" /><line
   id="XMLID_147_-8"
   class="st30"
   x1="320.08524"
   y1="553.75494"
   x2="340.38522"
   y2="553.75494" /><line
   id="XMLID_146_-1"
   class="st25"
   x1="309.08524"
   y1="553.75494"
   x2="310.18524"
   y2="553.75494" /><line
   id="XMLID_145_-9"
   class="st30"
   x1="371.38522"
   y1="545.15485"
   x2="389.18524"
   y2="545.15485" /><line
   id="XMLID_138_-3"
   class="st32"
   x1="348.98523"
   y1="545.15485"
   x2="362.78525"
   y2="545.15485" /><line
   id="XMLID_140_-9"
   class="st30"
   x1="333.98523"
   y1="545.15485"
   x2="341.78525"
   y2="545.15485" /><line
   id="XMLID_143_-0"
   class="st32"
   x1="320.08524"
   y1="545.15485"
   x2="326.48523"
   y2="545.15485" /><line
   id="XMLID_142_-8"
   class="st25"
   x1="309.08524"
   y1="545.15485"
   x2="310.18524"
   y2="545.15485" /><circle
   id="XMLID_136_-5"
   class="st23"
   cx="314.68524"
   cy="526.9549"
   r="2.5" /><circle
   id="XMLID_166_-0"
   class="st1"
   cx="323.68524"
   cy="526.9549"
   r="2.5" /><circle
   id="XMLID_174_-9"
   class="st1"
   cx="332.78525"
   cy="526.9549"
   r="2.5" /><path
   id="XMLID_2_"
   class="st14"
   d="m 679.5275,719.48887 h -9.2 v -97.3 h 9.2 c 6.9,0 12.5,5.6 12.5,12.5 v 72.3 c -0.1,6.9 -5.6,12.5 -12.5,12.5 z"
   style="fill:#4d4d4d;fill-opacity:1;opacity:0.24430581" /><path
   id="XMLID_176_"
   class="st9"
   d="m 676.7275,711.68887 h -89.6 c -4.4,0 -8,-3.6 -8,-8 v -80.9 c 0,-4.4 3.6,-8 8,-8 h 89.6 c 4.4,0 8,3.6 8,8 v 80.9 c 0,4.4 -3.6,8 -8,8 z" /><path
   id="XMLID_184_"
   class="st9"
   d="m 676.7275,711.68887 h -89.6 c -4.4,0 -8,-3.6 -8,-8 v -80.9 c 0,-4.4 3.6,-8 8,-8 h 89.6 c 4.4,0 8,3.6 8,8 v 80.9 c 0,4.4 -3.6,8 -8,8 z" /><path
   id="XMLID_175_"
   class="st5"
   d="m 676.7275,711.68887 h -89.6 c -4.4,0 -8,-3.6 -8,-8 v -80.9 c 0,-4.4 3.6,-8 8,-8 h 89.6 c 4.4,0 8,3.6 8,8 v 80.9 c 0,4.4 -3.6,8 -8,8 z" /><rect
   id="XMLID_186_"
   x="588.22754"
   y="622.98883"
   class="st33"
   width="86.800003"
   height="57.700001" /><rect
   id="XMLID_177_"
   x="588.22754"
   y="622.98883"
   class="st5"
   width="86.800003"
   height="57.700001" /><line
   id="XMLID_179_"
   class="st5"
   x1="588.22754"
   y1="689.88885"
   x2="643.02759"
   y2="689.88885" /><line
   id="XMLID_180_"
   class="st5"
   x1="588.22754"
   y1="699.08881"
   x2="620.62756"
   y2="699.08881" /><polyline
   id="XMLID_178_"
   class="st5"
   points="327,538.4 345.7,519.9 363.1,537.3  "
   transform="translate(269.9275,131.98888)" /><polyline
   id="XMLID_181_"
   class="st5"
   points="395.7,538.4 373.1,508.9 355,529.1  "
   transform="translate(269.9275,131.98888)" /><circle
   id="XMLID_187_"
   class="st5"
   cx="665.42761"
   cy="694.08881"
   r="4.9000001" /><circle
   id="XMLID_189_"
   class="st3"
   cx="621.12756"
   cy="640.88885"
   r="6.1999998" /><circle
   id="XMLID_188_"
   class="st5"
   cx="621.12756"
   cy="640.88885"
   r="6.1999998" /><path
   id="XMLID_5_"
   class="st14"
   d="m 596.42757,574.16079 h -12.5 c -6.8,0 -12.3,-5.5 -12.3,-12.3 v -30.5 c 0,-6.8 5.5,-12.3 12.3,-12.3 h 12.5 z"
   style="fill:#4d4d4d;fill-opacity:1;opacity:0.24430581" /><path
   style="fill:#444e59;fill-opacity:1;stroke:#4d4d4d;stroke-width:4;stroke-linecap:round;stroke-linejoin:miter;stroke-miterlimit:4;stroke-dasharray:none;stroke-opacity:1"
   d="m 491.8843,534.78691 h 73.95215"
   id="path19852" /><path
   style="fill:#444e59;fill-opacity:1;stroke:#4d4d4d;stroke-width:4;stroke-linecap:round;stroke-linejoin:miter;stroke-miterlimit:4;stroke-dasharray:none;stroke-opacity:1"
   d="m 475.89782,547.45617 h 89.93866"
   id="path35361" /><path
   id="XMLID_211_"
   class="st21"
   d="m 664.02757,567.76079 h -78.2 c -4.8,0 -8.6,-3.9 -8.6,-8.6 v -37.9 c 0,-4.8 3.9,-8.6 8.6,-8.6 h 78.2 c 4.8,0 8.6,3.9 8.6,8.6 v 37.8 c 0,4.8 -3.8,8.7 -8.6,8.7 z" /><path
   id="XMLID_197_"
   class="st6"
   d="m 664.02757,567.76079 h -78.2 c -4.8,0 -8.6,-3.9 -8.6,-8.6 v -37.9 c 0,-4.8 3.9,-8.6 8.6,-8.6 h 78.2 c 4.8,0 8.6,3.9 8.6,8.6 v 37.8 c 0,4.8 -3.8,8.7 -8.6,8.7 z"
   style="stroke-width:4;stroke-miterlimit:10;stroke-dasharray:none" /><line
   id="XMLID_214_"
   class="st34"
   x1="624.92755"
   y1="527.46075"
   x2="658.7276"
   y2="527.46075" /><line
   id="XMLID_216_"
   class="st34"
   x1="624.92755"
   y1="538.36078"
   x2="647.32758"
   y2="538.36078" /><path
   id="XMLID_217_"
   class="st9"
   d="m 641.92757,554.66079 h -13.6 c -1.8,0 -3.3,-1.5 -3.3,-3.3 v 0 c 0,-1.8 1.5,-3.3 3.3,-3.3 h 13.6 c 1.8,0 3.3,1.5 3.3,3.3 v 0 c 0,1.8 -1.4,3.3 -3.3,3.3 z"
   style="opacity:0.56" /><path
   id="XMLID_213_"
   class="st36"
   d="m 641.92757,554.66079 h -13.6 c -1.8,0 -3.3,-1.5 -3.3,-3.3 v 0 c 0,-1.8 1.5,-3.3 3.3,-3.3 h 13.6 c 1.8,0 3.3,1.5 3.3,3.3 v 0 c 0,1.8 -1.4,3.3 -3.3,3.3 z"
   style="opacity:0.56" /><path
   id="XMLID_206_"
   class="st36"
   d="m 610.82757,555.16079 h -17.9 c -2.6,0 -4.6,-2.1 -4.6,-4.6 v -20.9 c 0,-2.6 2.1,-4.6 4.6,-4.6 h 17.9 c 2.6,0 4.6,2.1 4.6,4.6 v 20.9 c 0,2.5 -2,4.6 -4.6,4.6 z" /><circle
   id="XMLID_225_"
   class="st36"
   cx="601.92761"
   cy="536.66083"
   r="4.8000002" /><path
   id="XMLID_227_"
   class="st36"
   d="m 592.82757,554.66079 c 0,-5 4.1,-9.1 9.1,-9.1 5,0 9.1,4.1 9.1,9.1" /><path
   id="XMLID_19_"
   class="st3"
   d="M 984.01753,674.05247 H 825.36427 c -6.65537,0 -12.10068,-5.4453 -12.10068,-12.10067 V 457.04704 c 0,-6.65538 5.44531,-12.10068 12.10068,-12.10068 h 158.65326 c 6.6554,0 12.1007,5.4453 12.1007,12.10068 V 661.9518 c 0,6.65537 -5.4453,12.10067 -12.1007,12.10067 z"
   style="fill:#f7e4cb;stroke-width:0.672259" /><path
   id="XMLID_30_"
   class="st4"
   d="M 984.01753,674.05247 H 825.36427 c -6.65537,0 -12.10068,-5.4453 -12.10068,-12.10067 V 457.04704 c 0,-6.65538 5.44531,-12.10068 12.10068,-12.10068 h 158.65326 c 6.6554,0 12.1007,5.4453 12.1007,12.10068 V 661.9518 c 0,6.65537 -5.4453,12.10067 -12.1007,12.10067 z"
   style="fill:#e0c5aa;stroke-width:0.672259" /><path
   id="XMLID_31_"
   class="st3"
   d="M 821.33071,652.00236 V 463.76963 c 0,-3.83188 3.09239,-6.85705 6.85705,-6.85705 h 152.93907 c 3.8319,0 6.8571,3.0924 6.8571,6.85705 v 188.23273 c 0,3.83187 -3.0924,6.85704 -6.8571,6.85704 H 828.25498 c -3.83188,0.0672 -6.92427,-3.02517 -6.92427,-6.85704 z"
   style="fill:#f7e4cb;stroke-width:0.672259" /><path
   id="XMLID_1_"
   class="st5"
   d="M 984.01753,674.05247 H 825.36427 c -6.65537,0 -12.10068,-5.4453 -12.10068,-12.10067 V 457.04704 c 0,-6.65538 5.44531,-12.10068 12.10068,-12.10068 h 158.65326 c 6.6554,0 12.1007,5.4453 12.1007,12.10068 V 661.9518 c 0,6.65537 -5.4453,12.10067 -12.1007,12.10067 z"
   style="fill:none;stroke:#444e59;stroke-width:4;stroke-linecap:round;stroke-linejoin:round;stroke-miterlimit:10;stroke-dasharray:none;stroke-opacity:1" /><path
   id="XMLID_34_"
   class="st4"
   d="m 837.93552,590.69227 c -3.6302,0 -6.52092,-2.89072 -6.52092,-6.52092 V 474.86192 c 0,-3.6302 2.89072,-6.52092 6.52092,-6.52092 h 133.51081 c 3.6302,0 6.5209,2.89072 6.5209,6.52092 v 109.30943 c 0,3.6302 -2.8907,6.52092 -6.5209,6.52092 z"
   style="fill:#e0c5aa;stroke-width:0.672259" /><path
   id="XMLID_22_"
   class="st6"
   d="m 850.0362,583.56631 c -6.38647,0 -11.56287,-5.1764 -11.56287,-11.56286 v -85.04086 c 0,-6.38646 5.1764,-11.56286 11.56287,-11.56286 h 109.30943 c 6.3865,0 11.5629,5.1764 11.5629,11.56286 v 84.97363 c 0,6.38647 -5.1764,11.56287 -11.5629,11.56287 H 850.0362 Z"
   style="fill:#353535" /><path
   id="XMLID_39_"
   class="st7"
   d="m 959.34563,475.39973 h -13.57961 c 2.3529,4.90749 3.6974,10.42002 3.6974,16.26868 v 0 c 0,38.85661 -31.529,70.38559 -70.3856,70.38559 h -24.3358 c -5.84866,0 -11.36119,-1.34452 -16.26869,-3.69743 v 13.57965 c 0,6.38647 5.1764,11.56287 11.56287,11.56287 h 109.30943 c 6.3865,0 11.5629,-5.1764 11.5629,-11.56287 v -84.97363 c 0.067,-6.38646 -5.1092,-11.56286 -11.5629,-11.56286 z"
   style="opacity:0.3;fill:#282828;stroke-width:0.672259" /><path
   id="XMLID_7_"
   class="st4"
   d="m 952.08522,618.25492 v -2.08401 h -46.1842 v -8.06712 h 46.1842 v -2.084 c 0,-0.67226 0.5378,-1.2773 1.2773,-1.2773 h 24.33581 c 0.6723,0 1.2773,0.53781 1.2773,1.2773 v 12.23513 c 0,0.67225 -0.5378,1.27729 -1.2773,1.27729 h -24.33581 c -0.7395,0 -1.2773,-0.53781 -1.2773,-1.27729 z"
   style="fill:#e0c5aa;stroke-width:0.672259" /><rect
   id="XMLID_10_"
   x="972.58923"
   y="610.12054"
   class="st6"
   width="2.8907168"
   height="4.0335584"
   style="fill:#353535" /><path
   id="XMLID_5_-1"
   class="st8"
   d="m 850.3051,642.59071 h -13.04184 c -0.67226,0 -1.27729,-0.5378 -1.27729,-1.27729 v -13.04184 c 0,-0.67225 0.53781,-1.27729 1.27729,-1.27729 h 13.04184 c 0.67226,0 1.2773,0.53781 1.2773,1.27729 v 13.04184 c 0,0.67227 -0.53781,1.27729 -1.2773,1.27729 z"
   style="fill:none;stroke:#444e59;stroke-width:1.34452;stroke-linecap:round;stroke-linejoin:round;stroke-miterlimit:10;stroke-opacity:1" /><path
   id="XMLID_4_"
   class="st9"
   d="m 1015.4121,705.17809 c 0,-6.65537 7.0587,-12.10067 15.7981,-12.10067 8.7393,0 15.7981,5.4453 15.7981,12.10067 z"
   style="fill:#f2ebe1;stroke-width:0.672259" /><path
   id="XMLID_14_"
   class="st5"
   d="m 1015.4121,705.17809 c 0,-6.65537 7.0587,-12.10067 15.7981,-12.10067 8.7393,0 15.7981,5.4453 15.7981,12.10067 z"
   style="fill:none;stroke:#444e59;stroke-width:4.03355;stroke-linecap:round;stroke-linejoin:round;stroke-miterlimit:10;stroke-opacity:1" /><rect
   id="XMLID_24_"
   x="824.69202"
   y="674.85919"
   class="st4"
   width="159.99782"
   height="16.134233"
   style="fill:#e0c5aa;stroke-width:0.672259" /><rect
   id="XMLID_12_"
   x="824.69202"
   y="674.85919"
   class="st10"
   width="159.99782"
   height="6.6553707"
   style="fill:#c6a485;stroke-width:0.672259" /><rect
   id="XMLID_9_"
   x="824.69202"
   y="674.85919"
   class="st5"
   width="159.99782"
   height="16.134233"
   style="fill:none;stroke:#444e59;stroke-width:4.03355;stroke-linecap:round;stroke-linejoin:round;stroke-miterlimit:10;stroke-opacity:1" /><rect
   id="XMLID_29_"
   x="853.59924"
   y="685.01031"
   class="st4"
   width="102.18347"
   height="8.0671167"
   style="fill:#e0c5aa;stroke-width:0.672259" /><rect
   id="XMLID_28_"
   x="981.32867"
   y="685.01031"
   class="st4"
   width="13.445194"
   height="8.0671167"
   style="fill:#e0c5aa;stroke-width:0.672259" /><rect
   id="XMLID_27_"
   x="961.83307"
   y="685.01031"
   class="st4"
   width="13.445194"
   height="8.0671167"
   style="fill:#e0c5aa;stroke-width:0.672259" /><rect
   id="XMLID_26_"
   x="834.10364"
   y="685.01031"
   class="st4"
   width="13.445194"
   height="8.0671167"
   style="fill:#e0c5aa;stroke-width:0.672259" /><rect
   id="XMLID_25_"
   x="814.60815"
   y="685.01031"
   class="st4"
   width="13.445194"
   height="8.0671167"
   style="fill:#e0c5aa;stroke-width:0.672259" /><rect
   id="XMLID_23_"
   x="801.02856"
   y="693.07745"
   class="st3"
   width="207.25766"
   height="12.100676"
   style="fill:#f7e4cb;stroke-width:0.672259" /><rect
   id="XMLID_11_-7"
   x="801.02856"
   y="693.07745"
   class="st5"
   width="207.25766"
   height="12.100676"
   style="fill:none;stroke:#444e59;stroke-width:4.03355;stroke-linecap:round;stroke-linejoin:round;stroke-miterlimit:10;stroke-opacity:1" /><rect
   id="XMLID_13_"
   x="853.59924"
   y="685.01031"
   class="st5"
   width="102.18347"
   height="8.0671167"
   style="fill:none;stroke:#444e59;stroke-width:4.03355;stroke-linecap:round;stroke-linejoin:round;stroke-miterlimit:10;stroke-opacity:1" /><rect
   id="XMLID_15_"
   x="981.32867"
   y="685.01031"
   class="st5"
   width="13.445194"
   height="8.0671167"
   style="fill:none;stroke:#444e59;stroke-width:4.03355;stroke-linecap:round;stroke-linejoin:round;stroke-miterlimit:10;stroke-opacity:1" /><rect
   id="XMLID_16_"
   x="961.83307"
   y="685.01031"
   class="st5"
   width="13.445194"
   height="8.0671167"
   style="fill:none;stroke:#444e59;stroke-width:4.03355;stroke-linecap:round;stroke-linejoin:round;stroke-miterlimit:10;stroke-opacity:1" /><rect
   id="XMLID_18_"
   x="834.10364"
   y="685.01031"
   class="st5"
   width="13.445194"
   height="8.0671167"
   style="fill:none;stroke:#444e59;stroke-width:4.03355;stroke-linecap:round;stroke-linejoin:round;stroke-miterlimit:10;stroke-opacity:1" /><rect
   id="XMLID_17_"
   x="814.60815"
   y="685.01031"
   class="st5"
   width="13.445194"
   height="8.0671167"
   style="fill:none;stroke:#444e59;stroke-width:4.03355;stroke-linecap:round;stroke-linejoin:round;stroke-miterlimit:10;stroke-opacity:1" /><path
   id="XMLID_37_"
   class="st11"
   d="m 845.26315,633.58243 c -0.60503,-0.5378 -1.00839,-1.27729 -1.21006,-2.084 h -4.23524 c -0.47058,0.60504 -0.87394,1.34453 -1.07562,2.084 z"
   style="fill:#cf9742;stroke-width:0.672259" /><path
   id="XMLID_55_-5"
   class="st12"
   d="m 843.91863,630.62449 c 0,-0.33612 0.0672,-0.73949 0.13446,-1.00839 -0.0672,0 -0.20168,0 -0.26891,0 -1.61342,0 -3.02517,0.73949 -3.96633,1.88233 h 4.23524 c -0.0672,-0.33612 -0.13446,-0.60504 -0.13446,-0.87394 z"
   style="fill:#6e9546;stroke-width:0.672259" /><path
   id="XMLID_59_-9"
   class="st13"
   d="m 839.81785,638.15379 h 7.93267 c 0.5378,-0.60502 0.87393,-1.34451 1.07561,-2.084 h -10.0839 c 0.20168,0.73949 0.60504,1.47898 1.07562,2.084 z"
   style="fill:#7c4d83;stroke-width:0.672259" /><path
   id="XMLID_61_-6"
   class="st14"
   d="m 843.78418,639.9689 c 1.61343,0 3.02517,-0.73948 3.96634,-1.81511 h -7.93267 c 1.00839,1.14286 2.42014,1.81511 3.96633,1.81511 z"
   style="fill:#4d8db9;stroke-width:0.672259" /><path
   id="XMLID_64_-2"
   class="st15"
   d="m 838.60778,634.79251 c 0,0.40335 0.0672,0.87394 0.13445,1.27728 h 10.0839 c 0.0672,-0.40334 0.13445,-0.80671 0.13445,-1.27728 0,-0.0672 0,-0.20169 0,-0.26892 -0.33613,0.0672 -0.67226,0.13447 -1.00839,0.13447 -1.07561,0 -2.01678,-0.40337 -2.68904,-1.07563 h -6.45369 c -0.13445,0.40337 -0.20168,0.80671 -0.20168,1.21008 z"
   style="fill:#cb6757" /><line
   id="XMLID_20_"
   class="st16"
   x1="857.29663"
   y1="489.51718"
   x2="868.12"
   y2="489.51718"
   style="fill:none;stroke:#ffffff;stroke-width:5.37808;stroke-linecap:round;stroke-linejoin:round;stroke-miterlimit:10" /><line
   id="XMLID_21_"
   class="st16"
   x1="879.3468"
   y1="489.51718"
   x2="917.93445"
   y2="489.51718"
   style="fill:none;stroke:#ffffff;stroke-width:5.37808;stroke-linecap:round;stroke-linejoin:round;stroke-miterlimit:10" /><path
   id="XMLID_8_"
   class="st6"
   d="m 975.47983,611.46509 h -21.10891 v -3.22685 c 0,-0.67225 0.5378,-1.27729 1.2773,-1.27729 h 18.55431 c 0.6723,0 1.2773,0.53781 1.2773,1.27729 z"
   style="fill:#353535" /><path
   id="XMLID_32_"
   class="st6"
   d="m 974.20253,617.31375 h -18.55431 c -0.6723,0 -1.2773,-0.53781 -1.2773,-1.27729 v -3.89911 h 21.10891 v 3.89911 c 0,0.67226 -0.605,1.27729 -1.2773,1.27729 z"
   style="fill:#353535" /><path
   id="XMLID_36_-1"
   class="st5"
   d="M 840.82624,674.05247"
   style="fill:none;stroke:#444e59;stroke-width:4.03355;stroke-linecap:round;stroke-linejoin:round;stroke-miterlimit:10;stroke-opacity:1" /><path
   id="XMLID_6_"
   class="st17"
   d="m 972.85803,614.15413 h -63.59571 c -0.3362,0 -0.6723,-0.2689 -0.6723,-0.67226 v -2.75626 c 0,-0.33613 0.2689,-0.67226 0.6723,-0.67226 h 63.59571 c 0.3362,0 0.6723,0.2689 0.6723,0.67226 v 2.75626 c -0.067,0.40336 -0.3361,0.67226 -0.6723,0.67226 z"
   style="fill:#282828;stroke-width:0.672259" /><path
   d="m 705.19932,384.81911 -36.83501,23.22881 a 15.236455,15.236455 0 0 1 -12.78974,1.61795 L 615.1979,396.68699 a 15.236455,15.236455 0 0 0 -12.8601,1.66262 l -29.56068,18.86988 a 6.9035548,6.9035548 0 0 1 -10.32617,-3.94214 l -25.51314,-89.44178 a 6.9038223,6.9038223 0 0 1 2.95072,-7.72938 l 37.22772,-23.52788 a 16.683189,16.683189 0 0 1 14.01792,-1.78033 l 39.08831,12.56476 a 16.683725,16.683725 0 0 0 14.06232,-1.80789 l 27.99249,-17.81371 a 6.9038223,6.9038223 0 0 1 10.34516,3.93063 l 25.50913,89.42947 a 6.9035548,6.9035548 0 0 1 -2.93226,7.71787 z"
   style="opacity:0.4;fill:#cccdcf;stroke-width:0.267517"
   id="path6" /><path
   d="m 706.63749,375.32679 -31.45416,20.01619 a 16.683725,16.683725 0 0 1 -14.06232,1.80789 l -39.09099,-12.56476 a 16.683992,16.683992 0 0 0 -14.01791,1.78006 l -33.79788,21.361 a 6.9035548,6.9035548 0 0 1 -10.32618,-3.94214 l -25.51287,-89.44178 a 6.9035548,6.9035548 0 0 1 2.95045,-7.72937 l 37.22586,-23.52897 a 16.683725,16.683725 0 0 1 14.01791,-1.78006 l 39.09072,12.56503 a 16.682922,16.682922 0 0 0 14.06232,-1.80815 l 27.99249,-17.81345 a 6.9038223,6.9038223 0 0 1 10.34516,3.93063 l 25.50913,89.42894 a 6.9038223,6.9038223 0 0 1 -2.93173,7.71894 z"
   style="fill:#ffffff;stroke-width:0.267517"
   id="path8" /><path
   d="m 618.27782,374.47582 -5.84873,-16.50208 -27.63963,9.46236 -8.64269,-25.04124 -22.51186,4.48039 15.78353,55.3317 a 1.1596881,1.1596881 0 0 0 1.11929,0.8392 1.1005667,1.1005667 0 0 0 0.60218,-0.18218 l 32.13259,-20.30805 c -0.13964,-0.16346 15.00532,-8.0801 15.00532,-8.0801 z"
   style="fill:#eaf4f7;stroke-width:0.267517"
   id="path10" /><path
   d="m 706.63749,375.32679 -31.45416,20.01619 a 16.683725,16.683725 0 0 1 -14.06232,1.80789 l -39.09099,-12.56476 a 16.683992,16.683992 0 0 0 -14.01791,1.78006 l -33.79788,21.361 a 6.9035548,6.9035548 0 0 1 -10.32618,-3.94214 l -25.51287,-89.44178 a 6.9035548,6.9035548 0 0 1 2.95045,-7.72937 l 37.22586,-23.52897 a 16.683725,16.683725 0 0 1 14.01791,-1.78006 l 39.09072,12.56503 a 16.682922,16.682922 0 0 0 14.06232,-1.80815 l 27.99249,-17.81345 a 6.9038223,6.9038223 0 0 1 10.34516,3.93063 l 25.50913,89.42894 a 6.9038223,6.9038223 0 0 1 -2.93173,7.71894 z"
   style="fill:none;stroke:#444e59;stroke-width:4;stroke-miterlimit:10;stroke-dasharray:none;stroke-opacity:1"
   id="path12" /><path
   d="m 589.26636,364.21626 c 0,0 0.47939,-0.12493 1.28729,-0.36088"
   style="fill:none;stroke:#363a5a;stroke-width:1.07007px;stroke-linecap:round;stroke-linejoin:round"
   id="path14" /><path
   d="m 594.44282,362.61035 c 5.68047,-1.97615 14.01631,-5.60261 14.11636,-9.89145 0.13376,-5.69813 -27.4826,-34.20639 -12.63565,-35.92974 49.56777,-5.75322 27.35821,35.47282 49.96477,34.55149 9.55037,-0.38924 -8.1114,-13.52007 19.17618,-23.01132 4.04513,-1.40714 2.03554,-11.69479 0.67843,-17.07349"
   style="fill:none;stroke:#363a5a;stroke-width:1.07007px;stroke-linecap:round;stroke-linejoin:round;stroke-dasharray:2.72228, 4.08344"
   id="path16" /><path
   d="m 665.21804,309.28183 c -0.22579,-0.8071 -0.37453,-1.28409 -0.37453,-1.28409"
   style="fill:none;stroke:#363a5a;stroke-width:1.07007px;stroke-linecap:round;stroke-linejoin:round"
   id="path18" /><circle
   cx="587.53986"
   cy="364.9126"
   r="12.8922"
   style="opacity:0.22;fill:#3dc0cb;stroke-width:0.267517"
   id="circle20" /><circle
   cx="587.53986"
   cy="364.9126"
   r="7.4760418"
   style="fill:#3dc0cb;stroke-width:0.267517"
   id="circle22" /><path
   d="m 587.5398,357.43657 a 7.4637363,7.4637363 0 0 0 -5.92765,2.92236 7.474972,7.474972 0 0 1 10.12821,10.73788 7.4760421,7.4760421 0 0 0 -4.20002,-13.66024 z"
   style="fill:#64c7cf;stroke-width:0.267517"
   id="path24" /><circle
   cx="587.53986"
   cy="364.9126"
   r="7.4760418"
   style="fill:none;stroke:#363a5a;stroke-width:1.6051px;stroke-miterlimit:10"
   id="circle26" /><path
   d="m 590.94664,298.21035 21.44232,4.06439 -4.92419,-8.65472 -17.74684,-6.19169 a 8.2769893,8.2769893 0 0 0 -6.32545,0.36168 l -38.99521,23.6868 a 1.1570129,1.1570129 0 0 0 -0.49197,1.28836 l 6.2888,22.04664 17.14493,-4.23934 -3.14868,-12.63004 z"
   style="fill:#87d5f7;stroke:#259ad6;stroke-width:1.07007px;stroke-linecap:round;stroke-linejoin:round"
   id="path28" /><polygon
   points="539.109,554.445 561.222,605.126 511.949,597.049 493.37,542.929 "
   style="fill:#fddcbf;stroke:#ecb072;stroke-width:4px;stroke-linecap:round;stroke-linejoin:round"
   id="polygon30"
   transform="matrix(0.26751743,0,0,0.26751743,492.94243,207.56475)" /><path
   d="m 665.0701,312.19349 c -9.94015,0 -17.99804,-2.88277 -17.99804,-6.43888 0,-3.55611 8.05789,-6.43915 17.99804,-6.43915 9.94015,0 17.99777,2.88304 17.99777,6.43915 0,3.55611 -8.05789,6.43888 -17.99777,6.43888 z"
   style="fill:#eaf4f7;stroke-width:0.267517"
   id="path32" /><polygon
   points="673.948,569.002 664.538,527.486 748.465,490.952 781.62,591.961 645.718,669.193 620.808,598.893 "
   style="fill:#fddcbf;stroke:#ecb072;stroke-width:4px;stroke-linecap:round;stroke-linejoin:round"
   id="polygon34"
   transform="matrix(0.26751743,0,0,0.26751743,492.94243,207.56475)" /><path
   d="m 691.56904,274.35876 c 0,-15.4625 -12.55031,-27.91383 -27.75788,-27.191 -13.61663,0.64739 -25.22475,12.24748 -25.22475,26.24988 0,20.25561 26.48422,35.87408 26.48422,35.87408 0,0 26.49841,-15.61847 26.49841,-34.93296 z"
   style="fill:#ee4637;stroke-width:0.267517"
   id="path36" /><path
   d="m 674.74326,301.45373 a 11.821328,11.821328 0 0 1 -14.60645,-0.0503 c -7.83826,-6.20641 -19.17485,-17.47504 -19.17485,-30.72705 a 25.761929,25.761929 0 0 1 5.29899,-15.56149 c -4.70108,4.74736 -7.67481,11.217 -7.67481,18.30274 0,20.25561 26.48423,35.87408 26.48423,35.87408 0,0 10.80075,-6.36691 18.61145,-15.99754 a 75.695929,75.695929 0 0 1 -8.93856,8.15955 z"
   style="fill:#cd3c27;stroke-width:0.267517"
   id="path38" /><path
   d="m 663.81116,247.16776 a 26.212428,26.212428 0 0 0 -13.34912,4.47369 25.882311,25.882311 0 0 1 9.96075,-2.5374 c 15.20756,-0.7223 27.75814,11.72823 27.75814,27.19101 0,15.14416 -16.29021,28.01549 -23.32538,32.86799 0.13777,0.084 0.21401,0.12948 0.21401,0.12948 0,0 26.49894,-15.61928 26.49894,-34.93377 5.4e-4,-15.4625 -12.54977,-27.91383 -27.75734,-27.191 z"
   style="fill:#f07378;stroke-width:0.267517"
   id="path40" /><path
   d="m 665.0701,284.77161 a 10.90294,10.90294 0 1 1 10.90267,-10.90294 10.90294,10.90294 0 0 1 -10.90267,10.90294 z"
   style="fill:#ffffff;stroke-width:0.267517"
   id="path42" /><path
   d="m 665.0701,284.77161 a 10.90294,10.90294 0 1 1 10.90267,-10.90294 10.90294,10.90294 0 0 1 -10.90267,10.90294 z"
   style="fill:none;stroke:#363a5a;stroke-width:4;stroke-miterlimit:10;stroke-dasharray:none"
   id="path44" /><path
   d="m 691.56904,274.35876 c 0,-15.4625 -12.55031,-27.91383 -27.75788,-27.191 -13.61663,0.64739 -25.22475,12.24748 -25.22475,26.24988 0,20.25561 26.48422,35.87408 26.48422,35.87408 0,0 26.49841,-15.61847 26.49841,-34.93296 z"
   style="fill:none;stroke:#363a5a;stroke-width:4;stroke-linecap:round;stroke-linejoin:round;stroke-miterlimit:4;stroke-dasharray:none"
   id="path46" /><path
   style="fill:#444e59;fill-opacity:1;stroke:#4d4d4d;stroke-width:4;stroke-linecap:round;stroke-linejoin:miter;stroke-miterlimit:4;stroke-dasharray:none;stroke-opacity:1"
   d="M 787.06627,645.99073 H 713.11412"
   id="path19852-7" /><path
   style="fill:#444e59;fill-opacity:1;stroke:#4d4d4d;stroke-width:4;stroke-linecap:round;stroke-linejoin:miter;stroke-miterlimit:4;stroke-dasharray:none;stroke-opacity:1"
   d="M 803.05275,658.65999 H 713.11409"
   id="path35361-8" /><text
   xml:space="preserve"
   style="font-size:27.9604px;line-height:1.25;font-family:sans-serif;word-spacing:0px;fill:#444e59;fill-opacity:1;stroke-width:1"
   x="488.79123"
   y="761.26447"
   id="text38783"><tspan
     sodipodi:role="line"
     x="488.79123"
     y="761.26447"
     id="tspan38787"
     style="font-style:normal;font-variant:normal;font-weight:normal;font-stretch:normal;font-family:monospace;-inkscape-font-specification:monospace;fill:#444e59;fill-opacity:1;stroke-width:1">{ &quot;name&quot;: &quot;Fido&quot; }</tspan></text><text
   xml:space="preserve"
   style="font-size:27.9604px;line-height:1.25;font-family:sans-serif;word-spacing:0px;fill:#444e59;fill-opacity:1;stroke-width:1"
   x="558.78503"
   y="457.67612"
   id="text49876"><tspan
     sodipodi:role="line"
     x="558.78503"
     y="457.67612"
     id="tspan49874"
     style="font-style:normal;font-variant:normal;font-weight:normal;font-stretch:normal;font-family:monospace;-inkscape-font-specification:monospace;fill:#444e59;fill-opacity:1;stroke-width:1">GET /pets</tspan></text><text
   xml:space="preserve"
   style="font-size:40px;line-height:1.25;font-family:sans-serif;word-spacing:0px"
   x="410.827"
   y="703.3559"
   id="text53664"><tspan
     sodipodi:role="line"
     id="tspan53662"
     x="410.827"
     y="703.3559" /></text></svg>
