<?xml version="1.0" encoding="UTF-8" standalone="no"?>
<!-- Generator: Adobe Illustrator 24.1.0, SVG Export Plug-In . SVG Version: 6.00 Build 0)  -->

<svg
   version="1.1"
   id="Layer_1"
   x="0px"
   y="0px"
   viewBox="0 0 854.60065 666.20001"
   xml:space="preserve"
   sodipodi:docname="customer.svg"
   width="854.60065"
   height="666.20001"
   inkscape:version="1.1.2 (0a00cf5339, 2022-02-04)"
   xmlns:inkscape="http://www.inkscape.org/namespaces/inkscape"
   xmlns:sodipodi="http://sodipodi.sourceforge.net/DTD/sodipodi-0.dtd"
   xmlns="http://www.w3.org/2000/svg"
   xmlns:svg="http://www.w3.org/2000/svg"><defs
   id="defs497">
	
	
	
	
	
	

	
	
	

	
	
	
	

	
	
	
	
	
	

	
	
	
	

	
	
	

	
	
	
	
	
	
	
	

	
	
	
	
	
	
	

	
	
	
	
	
	

		
		
	
		
	
		
		
	
		
		
	
		
		
		
		
	
		
		
	</defs><sodipodi:namedview
   id="namedview495"
   pagecolor="#505050"
   bordercolor="#eeeeee"
   borderopacity="1"
   inkscape:pageshadow="0"
   inkscape:pageopacity="0"
   inkscape:pagecheckerboard="0"
   showgrid="false"
   inkscape:zoom="0.67599408"
   inkscape:cx="495.56647"
   inkscape:cy="312.87256"
   inkscape:window-width="1920"
   inkscape:window-height="1019"
   inkscape:window-x="0"
   inkscape:window-y="0"
   inkscape:window-maximized="1"
   inkscape:current-layer="Layer_1" />
<style
   type="text/css"
   id="style2">
	.st0{fill:#FFFFFF;}
	.st1{fill:#606060;}
	.st2{fill:#00E7E9;}
	.st3{fill:#00D3DE;}
	.st4{fill:#586B87;}
	.st5{fill:none;stroke:#171819;stroke-width:6;stroke-linecap:round;stroke-linejoin:round;stroke-miterlimit:10;}
	.st6{fill:#FFDEC5;}
	.st7{fill:#F9C0B2;}
	.st8{fill:#FFABCD;}
	.st9{fill:#FFCAE2;}
	.st10{fill:#DD76A5;}
	.st11{fill:#00A8FF;}
	.st12{fill:#008AEE;}
	.st13{fill:none;stroke:#FFFFFF;stroke-width:6;stroke-linecap:round;stroke-linejoin:round;stroke-miterlimit:10;}
	.st14{fill:#FFE870;}
	.st15{fill:#FFAC73;}
	.st16{fill:#09C690;}
	.st17{fill:#FF4F7C;}
	.st18{fill:#171819;}
	.st19{fill:#637593;}
</style>
















<path
   class="st2"
   d="m 701.60033,502.8 h -570 c -22.1,0 -39.999998,-17.9 -39.999998,-40 V 112.5 c 0,-22.1 17.899998,-40 39.999998,-40 h 570 c 22.1,0 40,17.9 40,40 v 350.3 c 0,22.1 -17.9,40 -40,40 z"
   id="path342"
   style="opacity:0.09087776" /><path
   class="st3"
   d="m 723.40033,79 c 1,3.6 1.6,7.3 1.6,11.2 v 350.3 c 0,22.1 -17.9,40 -40,40 h -570 c -8,0 -15.499998,-2.4 -21.799998,-6.4 4.9,16.6 20.199998,28.8 38.399998,28.8 h 570 c 22.1,0 40,-17.9 40,-40 V 112.5 c 0,-14 -7.3,-26.4 -18.2,-33.5 z"
   id="path344"
   style="fill:#333333;opacity:0.19669118" /><path
   class="st4"
   d="m 498.90033,425.7 h -164.6 c -27.6,0 -50,-22.4 -50,-50 V 135.3 c 0,-73.1 59.2,-132.3 132.3,-132.3 v 0 c 73.1,0 132.3,59.2 132.3,132.3 v 240.5 c 0,27.5 -22.4,49.9 -50,49.9 z"
   id="path346" /><path
   class="st5"
   d="m 498.90033,425.7 h -164.6 c -27.6,0 -50,-22.4 -50,-50 V 135.3 c 0,-73.1 59.2,-132.3 132.3,-132.3 v 0 c 73.1,0 132.3,59.2 132.3,132.3 v 240.5 c 0,27.5 -22.4,49.9 -50,49.9 z"
   id="path348"
   style="stroke:#1a1a1a" /><path
   class="st6"
   d="m 514.80033,261.9 c -10.3,-23 -3.3,-65.2 -3.3,-65.2 0,0 23.2,-3.3 28.7,4.7 8.9,13.3 4.8,60.5 -25.4,60.5 z"
   id="path350" /><path
   class="st7"
   d="m 511.50033,196.7 c 0,0 -1.1,6.8 -1.8,16.5 0,0 18.9,-11.5 34.2,0 -0.8,-4.5 -1.9,-9 -3.8,-11.8 -5.4,-8.1 -28.6,-4.7 -28.6,-4.7 z"
   id="path352" /><path
   class="st5"
   d="m 514.80033,261.9 c -10.3,-23 -3.3,-65.2 -3.3,-65.2 0,0 23.2,-3.3 28.7,4.7 8.9,13.3 4.8,60.5 -25.4,60.5 z"
   id="path354"
   style="stroke:#1a1a1a" /><path
   class="st8"
   d="m 580.30033,502.8 h -327.4 v -35.6 c 0,-29.7 20.2,-56.2 50.8,-66.7 l 112.9,-38.6 112.9,38.6 c 30.6,10.5 50.8,37 50.8,66.7 z"
   id="path358" /><path
   class="st9"
   d="m 267.20033,468.2 c 0,-29.7 20.2,-56.2 50.8,-66.7 l 107.2,-36.6 -8.6,-2.9 -112.9,38.5 c -30.6,10.5 -50.8,37 -50.8,66.7 v 35.6 h 14.3 z"
   id="path360" /><path
   class="st10"
   d="m 529.50033,400.5 -112.9,-38.6 -16.6,5.7 96.3,32.9 c 30.6,10.5 50.8,37 50.8,66.7 v 35.6 h 33.2 v -35.6 c 0,-29.7 -20.2,-56.3 -50.8,-66.7 z"
   id="path362" /><path
   class="st5"
   d="m 580.30033,502.8 h -327.4 v -35.6 c 0,-29.7 20.2,-56.2 50.8,-66.7 l 112.9,-38.6 112.9,38.6 c 30.6,10.5 50.8,37 50.8,66.7 z"
   id="path364"
   style="stroke:#1a1a1a" /><path
   class="st6"
   d="m 368.50033,332.5 v 38.8 c 0,26.5 21.5,38.1 48.1,38.1 v 0 c 26.5,0 48.1,-11.5 48.1,-38.1 v -38.8 z"
   id="path368" /><path
   class="st7"
   d="m 368.50033,354.2 c 14.4,7.2 30.7,11.2 48.1,11.2 v 0 c 17.3,0 33.7,-4 48.1,-11.2 v -21.7 h -96.1 v 21.7 z"
   id="path370" /><path
   class="st5"
   d="m 368.50033,332.5 v 38.8 c 0,26.5 21.5,38.1 48.1,38.1 v 0 c 26.5,0 48.1,-11.5 48.1,-38.1 v -38.8 z"
   id="path372"
   style="stroke:#1a1a1a" /><path
   class="st5"
   d="m 701.60033,502.8 h -570 c -22.1,0 -39.999998,-17.9 -39.999998,-40 V 112.5 c 0,-22.1 17.899998,-40 39.999998,-40 h 570 c 22.1,0 40,17.9 40,40 v 350.3 c 0,22.1 -17.9,40 -40,40 z"
   id="path376"
   style="stroke:#1a1a1a" /><path
   class="st11"
   d="m 801.70033,193.1 h -150 c -27.6,0 -50,22.4 -50,50 v 0 c 0,27.6 22.4,50 50,50 h 27.9 v 23.8 l 23.8,-23.8 h 98.2 c 27.6,0 50,-22.4 50,-50 v 0 c 0.1,-27.6 -22.3,-50 -49.9,-50 z"
   id="path378" /><path
   class="st12"
   d="m 680.90033,292 c 0,-6.3 -5.1,-11.4 -11.4,-11.4 h -25.4 c -15.6,0 -29.5,-7.1 -38.7,-18.3 7.5,18.1 25.4,30.8 46.2,30.8 h 29.2 V 292 Z"
   id="path380" /><path
   class="st12"
   d="m 840.30033,211.4 c 2.5,5.9 3.8,12.4 3.8,19.2 v 0 c 0,27.6 -22.4,50 -50,50 h -91.2 c -4.3,0 -8.3,2.4 -10.2,6.3 l -11.9,23.2 -1.3,6.9 23.8,-23.8 h 98.2 c 27.6,0 50,-22.4 50,-50 v 0 c 0.2,-12.1 -4.1,-23.2 -11.2,-31.8 z"
   id="path382" /><circle
   class="st13"
   cx="679.60034"
   cy="242.5"
   r="13"
   id="circle386" /><circle
   class="st13"
   cx="726.70032"
   cy="242.5"
   r="13"
   id="circle388" /><circle
   class="st13"
   cx="774.80035"
   cy="242.5"
   r="13"
   id="circle390" /><path
   class="st5"
   d="m 801.70033,193.1 h -150 c -27.6,0 -50,22.4 -50,50 v 0 c 0,27.6 22.4,50 50,50 h 27.9 v 23.8 l 23.8,-23.8 h 98.2 c 27.6,0 50,-22.4 50,-50 v 0 c 0.1,-27.6 -22.3,-50 -49.9,-50 z"
   id="path392"
   style="stroke:#1a1a1a" /><path
   class="st14"
   d="M 52.900332,10.6 H 202.90033 c 27.6,0 50,22.4 50,50 v 0 c 0,27.6 -22.4,50 -50,50 h -27.9 v 23.9 l -23.8,-23.8 H 53.000332 c -27.6,0 -50,-22.4 -50,-50 v 0 c -0.1,-27.7 22.3,-50.1 49.9,-50.1 z"
   id="path396" /><path
   class="st15"
   d="m 173.70033,109.5 c 0,-6.3 5.1,-11.4 11.4,-11.4 h 25.4 c 15.6,0 29.5,-7.1 38.7,-18.3 -7.5,18.1 -25.4,30.8 -46.2,30.8 h -29.2 v -1.1 z"
   id="path398" /><path
   class="st15"
   d="m 14.200332,28.9 c -2.5,5.9 -3.8,12.4 -3.8,19.2 v 0 c 0,27.6 22.4,50 50,50 h 91.199998 c 4.3,0 8.3,2.4 10.2,6.3 l 11.9,23.2 1.3,6.9 -23.8,-23.8 H 53.000332 c -27.6,0 -50,-22.4 -50,-50 v 0 c -0.1,-12.1 4.2,-23.2 11.2,-31.8 z"
   id="path400" /><circle
   class="st13"
   cx="175.00032"
   cy="60"
   r="13"
   id="circle404" /><circle
   class="st13"
   cx="127.90034"
   cy="60"
   r="13"
   id="circle406" /><circle
   class="st13"
   cx="79.800331"
   cy="60"
   r="13"
   id="circle408" /><path
   class="st5"
   d="M 52.900332,10.6 H 202.90033 c 27.6,0 50,22.4 50,50 v 0 c 0,27.6 -22.4,50 -50,50 h -27.9 v 23.9 l -23.8,-23.8 H 53.000332 c -27.6,0 -50,-22.4 -50,-50 v 0 c -0.1,-27.7 22.3,-50.1 49.9,-50.1 z"
   id="path410"
   style="stroke:#1a1a1a" /><circle
   class="st16"
   cx="334.20035"
   cy="605.90002"
   id="circle414"
   r="57.299999"
   style="fill:#ffe680" /><circle
   class="st17"
   cx="499.00037"
   cy="605.90002"
   r="57.299999"
   id="circle416"
   style="fill:#2d8cff;fill-opacity:1" /><circle
   class="st5"
   cx="499.00037"
   cy="605.90002"
   r="57.299999"
   id="circle418"
   style="stroke:#1a1a1a" /><path
   class="st0"
   d="m 499.00033,590.9 c -20.9,0 -37.5,6.8 -37.5,15.7 v 8.4 c 0.2,3.3 2.9,6 6,6 h 12.4 c 4.4,0 7.3,-4.6 5.3,-8.4 -1.3,-2.6 -0.2,-6 2.2,-7.5 5.5,-3.3 17.3,-3.5 23.1,0 2.7,1.3 3.6,4.9 2.2,7.5 -2,3.8 0.9,8.4 5.3,8.4 h 12.4 c 3.3,-0.2 6,-2.9 6,-6 v -8.5 c -0.1,-8.6 -16.5,-15.6 -37.4,-15.6 z"
   id="path420" /><circle
   class="st5"
   cx="334.20035"
   cy="605.90002"
   r="57.299999"
   id="circle428"
   style="fill:#ffe870;fill-opacity:1;stroke:#1a1a1a" /><path
   class="st6"
   d="m 312.00033,142.9 v 107.2 c 0,57.8 46.8,102.2 104.6,102.2 v 0 c 57.8,0 104.6,-44.4 104.6,-102.2 V 142.9 Z"
   id="path432" /><path
   class="st7"
   d="m 416.60033,337.3 v 0 c -57.8,0 -104.6,-44.4 -104.6,-102.2 v 15 c 0,57.8 46.8,102.2 104.6,102.2 v 0 c 57.8,0 104.6,-44.4 104.6,-102.2 v -15 c 0,57.8 -46.8,102.2 -104.6,102.2 z"
   id="path434" /><path
   class="st7"
   d="m 312.00033,204.6 c 66.3,0.3 126.3,-18.9 162.2,-48.3 6,25.5 32.9,46.1 47.1,45.1 v -58.6 c -23.9,0 -149.5,4.9 -209.2,0 -0.1,26.1 -0.1,44 -0.1,61.8 z"
   id="path436" /><path
   class="st5"
   d="m 312.00033,142.9 v 107.2 c 0,57.8 46.8,102.2 104.6,102.2 v 0 c 57.8,0 104.6,-44.4 104.6,-102.2 V 142.9 Z"
   id="path438"
   style="stroke:#1a1a1a" /><path
   class="st5"
   d="m 385.60033,214.3 c -12.2,-2.1 -24.8,-2.1 -37,0"
   id="path440"
   style="stroke:#1a1a1a" /><circle
   class="st18"
   cx="359.30035"
   cy="223.5"
   r="9.1999998"
   id="circle442" /><path
   class="st5"
   d="m 476.90033,214.3 c -12.2,-2.1 -24.8,-2.1 -37,0"
   id="path444"
   style="stroke:#1a1a1a" /><circle
   class="st18"
   cx="450.50037"
   cy="223.5"
   r="9.1999998"
   id="circle446" /><path
   class="st5"
   d="m 424.30033,307.9 c 0,0 18.7,1.8 31.7,-18.1"
   id="path450"
   style="stroke:#1a1a1a" /><path
   class="st5"
   d="m 399.70033,265.2 c 1.3,5.8 7.8,10.2 15.6,10.2 7.8,0 14.3,-4.4 15.6,-10.2"
   id="path452"
   style="stroke:#1a1a1a" /><path
   class="st19"
   d="m 474.50033,16.3 c -8.1,18.3 -12.7,39.1 -12.7,61 0,62.2 36.9,114.6 87.1,130.4 v -72.5 c 0,-52.2 -30.4,-97.4 -74.4,-118.9 z"
   id="path456" /><path
   class="st4"
   d="m 474.50033,16.3 c -1.4,3.2 -2.7,6.4 -3.9,9.7 34.9,23.8 57.8,63.9 57.8,109.3 v 63.6 c 6.5,3.6 13.4,6.7 20.5,8.9 v -72.5 c 0,-52.3 -30.4,-97.5 -74.4,-119 z"
   id="path458" /><path
   class="st5"
   d="m 474.50033,16.3 c -8.1,18.3 -12.7,39.1 -12.7,61 0,62.2 36.9,114.6 87.1,130.4 v -72.5 c 0,-52.2 -30.4,-97.4 -74.4,-118.9 z"
   id="path460"
   style="stroke:#1a1a1a" /><path
   class="st19"
   d="m 416.60033,3 v 0 c -73.1,0 -132.3,59.2 -132.3,132.3 v 55.6 c 7.9,0.5 15.9,0.8 24,0.8 104.9,0 194.7,-42.7 232,-103.2 -18.9,-50 -67.1,-85.5 -123.7,-85.5 z"
   id="path462" /><path
   class="st4"
   d="m 416.60033,3 v 0 c -23.2,0 -45,6 -63.9,16.5 13.5,-4.4 27.9,-6.7 42.9,-6.7 v 0 c 59.5,0 110.3,37.4 130.3,89.9 -4.7,7.7 -10.3,15 -16.5,22.1 12.5,-11.1 23,-23.3 31,-36.3 -19,-50 -67.2,-85.5 -123.8,-85.5 z"
   id="path464" /><path
   class="st5"
   d="m 416.60033,3 v 0 c -73.1,0 -132.3,59.2 -132.3,132.3 v 55.6 c 7.9,0.5 15.9,0.8 24,0.8 104.9,0 194.7,-42.7 232,-103.2 -18.9,-50 -67.1,-85.5 -123.7,-85.5 z"
   id="path466"
   style="stroke:#1a1a1a" /><path
   class="st5"
   d="m 381.00033,140.2 c 38,-5.8 83.6,-18.3 114.2,-45"
   id="path468"
   style="stroke:#1a1a1a" /><path
   class="st5"
   d="m 312.80033,145.1 c 0,0 14.4,0.4 35.8,-1.2"
   id="path470"
   style="stroke:#1a1a1a" /><path
   class="st10"
   d="m 464.30033,390 c -15,8.1 -30.5,9.1 -47.7,17.7 -17.2,-8.6 -32.7,-9.6 -47.7,-17.7 -0.8,-0.4 -20.4,-1 -20.5,-1 1.4,-0.1 -1.7,13.2 0.6,27.5 1.9,14.3 9.3,29.5 20.6,33.1 0.7,0.2 1.4,0.3 2.1,0.3 14.3,1.4 36.9,-32.5 44.8,-40.5 7.9,8 30.6,41.9 44.8,40.5 0.7,-0.1 1.4,-0.2 2.1,-0.3 11.4,-3.6 18.8,-18.8 20.6,-33.1 2.4,-14.3 -0.7,-27.5 0.6,-27.5 0.2,0 -19.5,0.6 -20.3,1 z"
   id="path474" /><path
   class="st0"
   d="m 369.10033,378.1 47.5,31.2 c 0,0 -25,35.3 -37.3,33 -15.9,-3 -29.2,-57.7 -29.2,-57.7 z"
   id="path478" /><path
   class="st5"
   d="m 369.10033,378.1 47.5,31.2 c 0,0 -25,35.3 -37.3,33 -15.9,-3 -29.2,-57.7 -29.2,-57.7 z"
   id="path480"
   style="stroke:#1a1a1a" /><path
   class="st0"
   d="m 464.10033,378.1 -47.5,31.3 c 0,0 25,35.3 37.3,33 15.9,-3 29.2,-57.7 29.2,-57.7 z"
   id="path484" /><path
   class="st5"
   d="m 464.10033,378.1 -47.5,31.3 c 0,0 25,35.3 37.3,33 15.9,-3 29.2,-57.7 29.2,-57.7 z"
   id="path486"
   style="stroke:#1a1a1a" /><line
   class="st5"
   x1="416.60034"
   y1="409.40002"
   x2="416.60034"
   y2="472.90002"
   id="line490"
   style="stroke:#1a1a1a" /><text
   xml:space="preserve"
   style="font-size:54.9419px;line-height:1.25;font-family:sans-serif;word-spacing:0px;fill:#171819;fill-opacity:1;stroke-width:1.37355"
   x="301.55783"
   y="625.10553"
   id="text3096"><tspan
     sodipodi:role="line"
     id="tspan3094"
     x="301.55783"
     y="625.10553"
     style="font-style:normal;font-variant:normal;font-weight:bold;font-stretch:normal;font-family:Arial;-inkscape-font-specification:Arial;fill:#171819;fill-opacity:1;stroke-width:1.37355">$</tspan></text><text
   xml:space="preserve"
   style="font-size:54.9419px;line-height:1.25;font-family:sans-serif;word-spacing:0px;fill:#171819;fill-opacity:1;stroke-width:1.37355"
   x="333.87137"
   y="625.10553"
   id="text11452"><tspan
     sodipodi:role="line"
     id="tspan11450"
     x="333.87137"
     y="625.10553"
     style="font-style:normal;font-variant:normal;font-weight:bold;font-stretch:normal;font-family:Arial;-inkscape-font-specification:Arial;fill:#171819;fill-opacity:1;stroke-width:1.37355">$</tspan></text></svg>
