<?xml version="1.0" encoding="UTF-8" standalone="no"?>
<!-- Generator: Adobe Illustrator 23.1.1, SVG Export Plug-In . SVG Version: 6.00 Build 0)  -->

<svg
   version="1.1"
   id="Layer_1"
   x="0px"
   y="0px"
   viewBox="0 0 656.38831 743.1933"
   xml:space="preserve"
   sodipodi:docname="drawing-of-spanner.svg"
   width="656.38831"
   height="743.1933"
   inkscape:version="1.1.2 (0a00cf5339, 2022-02-04)"
   xmlns:inkscape="http://www.inkscape.org/namespaces/inkscape"
   xmlns:sodipodi="http://sodipodi.sourceforge.net/DTD/sodipodi-0.dtd"
   xmlns="http://www.w3.org/2000/svg"
   xmlns:svg="http://www.w3.org/2000/svg"><defs
   id="defs9004">
	
	
	
	
	
	
	
	
	
	
<clipPath
   clipPathUnits="userSpaceOnUse"
   id="clipPath20996"><path
     style="fill:#e6e6e6;stroke:#000000;stroke-width:1px;stroke-linecap:butt;stroke-linejoin:miter;stroke-opacity:1"
     d="m 523.34046,237.78582 -0.62006,7.20777 -53.26249,18.53221 -33.33286,10.75955 c 0,0 -31.04059,4.84298 -45.9015,1.83157 -14.86091,-3.01141 -55.89493,-6.08615 -68.44416,-11.97106 -12.54924,-5.88492 -2.88985,-6.73073 -2.88985,-6.73073 l -0.62006,-4.25152 -9.18643,-6.70416 -16.40339,-0.79371 -3.28926,6.80018 -11.93531,-5.0769 -1.86323,1.36883 -4.71937,-1.51286 -5.01152,3.88071 -1.91839,18.20329 -30.64425,8.33041 -30.86489,13.39709 -36.82131,22.83378 -1.25135,11.82806 75.54467,7.59798 9.82283,-1.2963 8.69815,0.37796 -4.49668,65.03232 -7.06782,12.62381 -76.21683,-2.86227 -12.27343,5.4426 -2.10737,8.49487 13.4022,15.07747 21.36792,16.56377 20.93991,12.90063 20.73561,8.37127 20.97771,3.4292 17.05715,-0.93672 38.12374,-18.55673 35.31356,-38.57422 16.00194,-16.80995 19.82033,-17.84065 27.46736,-18.4791 41.9932,-19.44136 63.15275,-19.96539 34.34006,-12.23563 0.82538,5.73782 3.36996,1.91022 23.72046,-6.31089 52.99894,-14.14994 86.84052,-23.97379 64.32339,-19.84587 75.79494,-32.45232 2.62936,-6.85024 33.44829,-10.67477 14.34607,-7.25782 9.66245,-10.56751 -0.73037,-50.25006 -11.35101,-12.5094 -15.13978,-6.15255 -9.20278,-1.04602 -10.07514,1.27178 -19.3913,4.81743 -20.03179,6.87884 -11.02515,-0.98167 -56.34949,17.11641 -50.76185,16.29817 -41.25465,15.58312 -9.50208,2.08285 -8.38659,1.84996 -4.26275,4.37308 -13.34806,3.37813 -5.1147,1.89592 -3.68151,4.33017 -16.24506,3.5477 -8.50917,6.90643 -15.85279,7.24862 -21.46497,7.14444 -0.79269,1.34532 z"
     id="path20998" /></clipPath></defs><sodipodi:namedview
   id="namedview9002"
   pagecolor="#505050"
   bordercolor="#eeeeee"
   borderopacity="1"
   inkscape:pageshadow="0"
   inkscape:pageopacity="0"
   inkscape:pagecheckerboard="0"
   showgrid="false"
   inkscape:zoom="0.67599408"
   inkscape:cx="386.09806"
   inkscape:cy="464.50111"
   inkscape:window-width="1884"
   inkscape:window-height="1026"
   inkscape:window-x="0"
   inkscape:window-y="0"
   inkscape:window-maximized="1"
   inkscape:current-layer="Layer_1" />
<style
   type="text/css"
   id="style8529">
	.st0{fill:#FF1F1F;}
	.st1{fill:#EEF2F4;}
	.st2{enable-background:new    ;}
	.st3{fill:none;stroke:#CB0000;stroke-width:8;stroke-linecap:round;stroke-linejoin:round;stroke-miterlimit:10;}
	.st4{fill:#CB0000;stroke:#CB0000;stroke-width:8;stroke-linecap:round;stroke-linejoin:round;stroke-miterlimit:10;}
	.st5{fill:none;stroke:#340600;stroke-width:8;stroke-linecap:round;stroke-linejoin:round;stroke-miterlimit:10;}
	.st6{fill:#BFBFBF;}
	.st7{fill:#FFFFFF;}
	.st8{fill:none;stroke:#340600;stroke-width:6;stroke-linecap:round;stroke-linejoin:round;stroke-miterlimit:10;}
	.st9{fill:#606060;}
	.st10{fill:#1D4928;}
	.st11{fill:#C4C4C4;}
	.st12{opacity:0.77;fill:#C4C4C4;enable-background:new    ;}
	.st13{fill:#47A942;}
	.st14{fill:#81C347;}
	.st15{fill:#CADB2A;}
	.st16{fill:#26863F;}
	.st17{fill:#CCCC00;}
	.st18{fill:#245B34;}
	.st19{fill:#FF9E03;}
	.st20{fill:none;stroke:#340600;stroke-width:10;stroke-linecap:round;stroke-linejoin:round;stroke-miterlimit:10;}
	.st21{fill:none;stroke:#340600;stroke-width:3;stroke-linejoin:round;stroke-miterlimit:10;}
	.st22{fill:#06A0FF;}
	.st23{opacity:0.27;fill:#06A0FF;enable-background:new    ;}
	.st24{opacity:0.38;fill:#06A0FF;enable-background:new    ;}
	
		.st25{opacity:0.58;fill:none;stroke:#340600;stroke-width:8;stroke-linecap:round;stroke-linejoin:round;stroke-miterlimit:10;enable-background:new    ;}
</style>










<g
   id="g13936"
   transform="matrix(0.51103043,0,0,0.51330526,-1239.4725,496.99956)"
   style="stroke:#ffffff;stroke-width:1.82183;stroke-opacity:1"><path
     style="fill:none;stroke:#ffffff;stroke-width:9.39895;stroke-linecap:butt;stroke-linejoin:miter;stroke-miterlimit:4;stroke-dasharray:none;stroke-opacity:1"
     d="m 2714.1533,-717.495 -14.0463,115.43762 11.7555,14.06843 233.725,24.96725 c 0,0 -67.2792,163.46738 -27.0264,281.79884 40.2528,118.33144 117.677,270.34114 144.1408,342.49614 26.4638,72.1549 59.914,214.7549 59.914,214.7549 0,0 53.0857,113.1028 -28.2178,130.2343 -81.3035,17.1313 -89.1687,-62.0651 -100.1594,-98.7255 -10.9908,-36.6602 -66.5033,-135.7313 -87.0728,-219.1087 -20.5695,-83.3772996 -64.1243,-245.8629 -103.0092,-388.56961 -38.8849,-142.70668 -154.7012,-163.4968 -175.2339,-228.44839 -20.5327,-64.95159 -24.754,-101.46846 56.2627,-195.45045 z"
     id="path1204" /><path
     style="fill:none;stroke:#ffffff;stroke-width:9.39895;stroke-linecap:butt;stroke-linejoin:miter;stroke-miterlimit:4;stroke-dasharray:none;stroke-opacity:1"
     d="m 2834.7131,-716.36246 -9.0014,112.71291 44.9447,33.58995 40.5653,1.29433 c 0,0 -10.3804,-79.1046 -57.7703,-143.7988 z"
     id="path1206" /><path
     style="fill:none;stroke:#ffffff;stroke-width:9.39895;stroke-linecap:butt;stroke-linejoin:miter;stroke-miterlimit:4;stroke-dasharray:none;stroke-opacity:1"
     d="m 2789.5336,-424.11531 74.0293,245.09859 c 0,0 7.5038,38.7281 43.2678,27.7584 35.764,-10.9697 19.7996,-53.2053 19.7996,-53.2053 l -62.836,-216.80461 17.0071,-80.14468 -5.5096,-26.34136 -90.3525,-7.2282 -16.1543,23.03406 z"
     id="path1208" /><path
     style="fill:none;stroke:#ffffff;stroke-width:9.39895;stroke-linecap:butt;stroke-linejoin:miter;stroke-miterlimit:4;stroke-dasharray:none;stroke-opacity:1"
     d="m 3062.0602,302.50768 c 40.3329,-8.9506 68.8688,31.9496 24.6156,59.409 -44.2532,27.4594 -79.6393,-38.6706 -24.6156,-59.409 z"
     id="path1210" /></g><g
   id="g19689"
   transform="translate(-548.38139,31.85258)"><g
     id="XMLID_215_"
     style="opacity:0.318218;fill:#4d4d4d;stroke:#4d4d4d"
     transform="matrix(0.96469042,0,0,0.96469042,306.23434,-17.997269)">
		<path
   id="XMLID_214_"
   class="st4"
   d="M 535.4,636.4 H 394.3 c -5.9,0 -10.7,-4.8 -10.7,-10.7 v -55.6 c 0,-5.9 4.8,-10.7 10.7,-10.7 h 141.2 c 5.9,0 10.7,4.8 10.7,10.7 v 55.6 c -0.1,5.9 -4.9,10.7 -10.8,10.7 z"
   style="fill:#4d4d4d;stroke:#4d4d4d" />
		<path
   id="XMLID_213_"
   class="st4"
   d="m 503.8,642.7 h -94.7 c -3,0 -5.5,-2.5 -5.5,-5.5 v -79.7 c 0,-3 2.5,-5.5 5.5,-5.5 h 94.7 c 3,0 5.5,2.5 5.5,5.5 v 79.7 c 0,3 -2.4,5.5 -5.5,5.5 z"
   style="fill:#4d4d4d;stroke:#4d4d4d" />
	</g><path
     id="XMLID_186_"
     class="st7"
     d="M 814.04738,586.28481 H 677.92956 c -5.69167,0 -10.32219,-4.63051 -10.32219,-10.32219 v -53.63678 c 0,-5.69168 4.63052,-10.32219 10.32219,-10.32219 h 136.21429 c 5.69167,0 10.32218,4.63051 10.32218,10.32219 v 53.63678 c -0.0965,5.69168 -4.72698,10.32219 -10.41865,10.32219 z"
     style="stroke-width:0.96469" /><path
     id="XMLID_234_"
     class="st6"
     d="m 788.19367,586.28481 h -100.3278 c -5.69167,0 -10.32219,-4.63051 -10.32219,-10.32219 v -53.63678 c 0,-5.69168 4.63052,-10.32219 10.32219,-10.32219 h 100.3278 c 5.69168,0 10.32219,4.63051 10.32219,10.32219 v 53.63678 c 0,5.69168 -4.63051,10.32219 -10.32219,10.32219 z"
     style="stroke-width:0.96469" /><path
     id="XMLID_49_"
     class="st5"
     d="M 814.04738,586.28481 H 677.92956 c -5.69167,0 -10.32219,-4.63051 -10.32219,-10.32219 v -53.63678 c 0,-5.69168 4.63052,-10.32219 10.32219,-10.32219 h 136.21429 c 5.69167,0 10.32218,4.63051 10.32218,10.32219 v 53.63678 c -0.0965,5.69168 -4.72698,10.32219 -10.41865,10.32219 z" /><path
     id="XMLID_187_"
     class="st22"
     d="m 783.56316,592.36236 h -91.35618 c -2.89407,0 -5.3058,-2.41173 -5.3058,-5.3058 v -76.88582 c 0,-2.89408 2.41173,-5.3058 5.3058,-5.3058 h 91.35618 c 2.89407,0 5.3058,2.41172 5.3058,5.3058 v 76.88582 c 0,2.89407 -2.31526,5.3058 -5.3058,5.3058 z"
     style="stroke-width:0.96469" /><path
     id="XMLID_229_"
     class="st23"
     d="m 783.56316,592.36236 h -91.35618 c -2.89407,0 -5.3058,-2.41173 -5.3058,-5.3058 v -1.2541 c 0,-2.89407 2.41173,-5.30579 5.3058,-5.30579 h 91.35618 c 2.89407,0 5.3058,2.41172 5.3058,5.30579 v 1.2541 c 0,2.89407 -2.31526,5.3058 -5.3058,5.3058 z"
     style="stroke-width:0.96469" /><path
     id="XMLID_236_"
     class="st24"
     d="m 783.56316,517.98473 h -91.35618 c -2.89407,0 -5.3058,-2.41173 -5.3058,-5.3058 v -1.2541 c 0,-2.89407 2.41173,-5.30579 5.3058,-5.30579 h 91.35618 c 2.89407,0 5.3058,2.41172 5.3058,5.30579 v 1.2541 c 0,2.89407 -2.31526,5.3058 -5.3058,5.3058 z"
     style="stroke-width:0.96469" /><path
     id="XMLID_60_"
     class="st5"
     d="m 783.56316,592.36236 h -91.35618 c -2.89407,0 -5.3058,-2.41173 -5.3058,-5.3058 v -76.88582 c 0,-2.89408 2.41173,-5.3058 5.3058,-5.3058 h 91.35618 c 2.89407,0 5.3058,2.41172 5.3058,5.3058 v 76.88582 c 0,2.89407 -2.31526,5.3058 -5.3058,5.3058 z" /><line
     id="XMLID_207_"
     class="st25"
     x1="707.54553"
     y1="532.16565"
     x2="760.60352"
     y2="532.16565" /><line
     id="XMLID_208_"
     class="st25"
     x1="707.54553"
     y1="549.14423"
     x2="729.73346"
     y2="549.14423" /></g><path
   style="opacity:0.424897;fill:none;stroke:#ffffff;stroke-width:2.6;stroke-linecap:butt;stroke-linejoin:miter;stroke-miterlimit:4;stroke-dasharray:none;stroke-opacity:1"
   d="m 157.54868,77.16008 -5.31032,37.50368"
   id="path20085" /><path
   style="opacity:0.424897;fill:none;stroke:#ffffff;stroke-width:2.6;stroke-linecap:butt;stroke-linejoin:miter;stroke-miterlimit:4;stroke-dasharray:none;stroke-opacity:1"
   d="M 207.33191,121.78061 211.57015,81.2027"
   id="path20087" /><path
   style="opacity:0.424897;fill:none;stroke:#ffffff;stroke-width:2.6;stroke-linecap:butt;stroke-linejoin:miter;stroke-miterlimit:4;stroke-dasharray:none;stroke-opacity:1"
   d="m 170.28383,82.70023 -14.5279,12.57682 10.90512,13.57024"
   id="path20089" /><path
   style="opacity:0.424897;fill:none;stroke:#ffffff;stroke-width:2.6;stroke-linecap:butt;stroke-linejoin:miter;stroke-miterlimit:4;stroke-dasharray:none;stroke-opacity:1"
   d="m 155.75593,95.27705 53.59142,5.47733 -10.21713,-15.51774"
   id="path20091" /><path
   style="opacity:0.424897;fill:none;stroke:#ffffff;stroke-width:2.6;stroke-linecap:butt;stroke-linejoin:miter;stroke-miterlimit:4;stroke-dasharray:none;stroke-opacity:1"
   d="m 209.34735,100.75438 -11.93837,10.94496"
   id="path20093" /><path
   style="opacity:0.424897;fill:none;stroke:#ffffff;stroke-width:2.6;stroke-linecap:butt;stroke-linejoin:miter;stroke-miterlimit:4;stroke-dasharray:none;stroke-opacity:1"
   d="m 337.44917,666.1921 152.67157,-1.49663"
   id="path20095" /><path
   style="opacity:0.424897;fill:none;stroke:#ffffff;stroke-width:2.6;stroke-linecap:butt;stroke-linejoin:miter;stroke-miterlimit:4;stroke-dasharray:none;stroke-opacity:1"
   d="M 237.61645,396.28578 75.653006,397.68707"
   id="path20097" /><g
   id="g19675"
   transform="rotate(36.816976,794.09901,287.86151)"><g
     id="XMLID_226_"
     style="opacity:0.553512;fill:#999999;stroke:#999999"
     transform="matrix(0.96469042,0,0,0.96469042,306.23434,-17.997269)">
	<line
   id="XMLID_225_"
   class="st3"
   x1="153.60001"
   y1="532"
   x2="321.20001"
   y2="532"
   style="fill:#999999;stroke:#999999" />
	<path
   id="XMLID_224_"
   class="st4"
   d="m 242.4,552.4 h -10.2 c -2.4,0 -4.3,-1.9 -4.3,-4.3 v -30.7 c 0,-2.4 1.9,-4.3 4.3,-4.3 h 10.2 c 2.4,0 4.3,1.9 4.3,4.3 v 30.7 c 0,2.4 -2,4.3 -4.3,4.3 z"
   style="fill:#999999;stroke:#999999" />
	<line
   id="XMLID_223_"
   class="st3"
   x1="340.20001"
   y1="708.5"
   x2="350.79999"
   y2="737.70001"
   style="fill:#999999;stroke:#999999" />
	<polygon
   id="XMLID_222_"
   class="st4"
   points="230.6,427 259.8,416.4 312.2,560.4 329.7,640.8 311,647.7 "
   style="fill:#999999;stroke:#999999" />
	
		<rect
   id="XMLID_221_"
   x="326.89999"
   y="672.5"
   transform="rotate(-19.998771,333.52421,690.20763)"
   class="st4"
   width="13.3"
   height="35.400002"
   style="fill:#999999;stroke:#999999" />
	<circle
   id="XMLID_220_"
   class="st4"
   cx="326.20001"
   cy="657.09998"
   r="19.9"
   style="fill:#999999;stroke:#999999" />
	<polygon
   id="XMLID_219_"
   class="st4"
   points="244.2,427 215.1,416.4 162.6,560.4 145.1,640.8 163.9,647.7 "
   style="fill:#999999;stroke:#999999" />
	
		<rect
   id="XMLID_218_"
   x="123.6"
   y="683.59998"
   transform="rotate(-70.001229,141.25062,690.26062)"
   class="st4"
   width="35.400002"
   height="13.3"
   style="fill:#999999;stroke:#999999" />
	<line
   id="XMLID_217_"
   class="st3"
   x1="134.60001"
   y1="708.5"
   x2="124"
   y2="737.70001"
   style="fill:#999999;stroke:#999999" />
	<circle
   id="XMLID_216_"
   class="st4"
   cx="148.7"
   cy="657.09998"
   r="19.9"
   style="fill:#999999;stroke:#999999" />
	<path
   id="XMLID_26_"
   class="st4"
   d="m 252.9,478.2 c -10.3,0 -20.7,0 -31,0 -5,0 -9.8,-3.8 -11,-8.8 -5.5,-23.2 -9.3,-46.7 -8.9,-69.9 0.2,-5.9 5.9,-11.1 11.8,-11.1 15.8,0 31.6,0 47.4,0 5.9,0 11.6,5.2 11.8,11.1 0.4,23.2 -3.4,46.7 -8.9,69.9 -1.4,5 -6.2,8.8 -11.2,8.8 z"
   style="fill:#999999;stroke:#999999" />
	<rect
   id="XMLID_10_"
   x="219.3"
   y="294.29999"
   class="st4"
   width="35.400002"
   height="78.599998"
   style="fill:#999999;stroke:#999999" />
	<rect
   id="XMLID_4_"
   x="227.7"
   y="372.89999"
   class="st4"
   width="18.799999"
   height="15.5"
   style="fill:#999999;stroke:#999999" />
</g><g
     id="XMLID_20_"
     transform="matrix(0.96469042,0,0,0.96469042,306.23434,-17.997269)">
	<line
   id="XMLID_25_"
   class="st5"
   x1="143.60001"
   y1="527"
   x2="311.20001"
   y2="527" />
	<path
   id="XMLID_151_"
   class="st6"
   d="m 232.4,547.4 h -10.2 c -2.4,0 -4.3,-1.9 -4.3,-4.3 v -30.7 c 0,-2.4 1.9,-4.3 4.3,-4.3 h 10.2 c 2.4,0 4.3,1.9 4.3,4.3 v 30.7 c 0,2.4 -2,4.3 -4.3,4.3 z" />
	<path
   id="XMLID_245_"
   class="st7"
   d="m 219.7,508.8 c -1.1,0.8 -1.9,2.1 -1.9,3.6 v 30.7 c 0,1.5 0.8,2.8 1.9,3.6 3.2,-2.9 5.6,-10.3 5.6,-18.9 0,-8.7 -2.3,-16.1 -5.6,-19 z" />
	<path
   id="XMLID_23_"
   class="st8"
   d="m 232.4,547.4 h -10.2 c -2.4,0 -4.3,-1.9 -4.3,-4.3 v -30.7 c 0,-2.4 1.9,-4.3 4.3,-4.3 h 10.2 c 2.4,0 4.3,1.9 4.3,4.3 v 30.7 c 0,2.4 -2,4.3 -4.3,4.3 z" />
	<polygon
   id="XMLID_9_"
   class="st7"
   points="220.6,422 249.8,411.4 302.2,555.4 319.7,635.8 301,642.7 " />
	<polygon
   id="XMLID_237_"
   class="st6"
   points="249.8,411.4 241.8,414.3 293.2,555.4 310.7,635.8 299.9,639.8 301,642.7 319.7,635.8 302.2,555.4 " />
	<path
   id="XMLID_231_"
   class="st6"
   d="m 250.8,410.4 -29.2,10.6 22.6,62.2 c 10,-0.2 19,-7.3 21.4,-17.2 0.7,-3.1 1.4,-6.1 2.1,-9.1 z" />
	<line
   id="XMLID_11_"
   class="st5"
   x1="330.20001"
   y1="703.5"
   x2="340.79999"
   y2="732.70001" />
	
		<rect
   id="XMLID_68_"
   x="316.89999"
   y="667.5"
   transform="rotate(-19.998771,323.52426,685.20735)"
   class="st6"
   width="13.3"
   height="35.400002" />
	<polygon
   id="XMLID_14_"
   class="st5"
   points="220.6,422 249.8,411.4 302.2,555.4 319.7,635.8 301,642.7 " />
	
		<rect
   id="XMLID_12_"
   x="316.89999"
   y="667.5"
   transform="rotate(-19.998771,323.52426,685.20735)"
   class="st5"
   width="13.3"
   height="35.400002" />
	<circle
   id="XMLID_62_"
   class="st7"
   cx="316.20001"
   cy="652.09998"
   r="19.9" />
	<path
   id="XMLID_233_"
   class="st6"
   d="m 321.3,643.9 c -10.3,3.8 -15.7,15.2 -11.9,25.6 0.2,0.6 0.4,1.1 0.7,1.6 4.1,1.3 8.6,1.3 12.9,-0.2 10.3,-3.8 15.7,-15.2 11.9,-25.6 -0.2,-0.6 -0.4,-1.1 -0.7,-1.6 -4,-1.4 -8.5,-1.4 -12.9,0.2 z" />
	<circle
   id="XMLID_13_"
   class="st5"
   cx="316.20001"
   cy="652.09998"
   r="19.9" />
	<polygon
   id="XMLID_8_"
   class="st7"
   points="234.2,422 205.1,411.4 152.6,555.4 135.1,635.8 153.9,642.7 " />
	<polygon
   id="XMLID_228_"
   class="st7"
   points="234.2,422 205.1,411.4 152.6,555.4 135.1,635.8 153.9,642.7 " />
	<polygon
   id="XMLID_232_"
   class="st6"
   points="234.2,422 205.1,411.4 204,414.3 225.2,422 145.9,639.8 153.9,642.7 " />
	<path
   id="XMLID_230_"
   class="st6"
   d="m 207.1,410.4 -16.9,46.5 c 0.6,3 1.3,6 2.1,9.1 2.4,9.8 11.4,16.9 21.4,17.1 l 22.6,-62.2 z" />
	<polygon
   id="XMLID_18_"
   class="st5"
   points="234.2,422 205.1,411.4 152.6,555.4 135.1,635.8 153.9,642.7 " />
	
		<rect
   id="XMLID_153_"
   x="113.6"
   y="678.59998"
   transform="rotate(-70.001229,131.25067,685.26055)"
   class="st6"
   width="35.400002"
   height="13.3" />
	
		<rect
   id="XMLID_16_"
   x="113.6"
   y="678.59998"
   transform="rotate(-70.001229,131.25067,685.26055)"
   class="st5"
   width="35.400002"
   height="13.3" />
	<line
   id="XMLID_15_"
   class="st5"
   x1="124.6"
   y1="703.5"
   x2="114"
   y2="732.70001" />
	
		<circle
   id="XMLID_152_"
   transform="matrix(0.03327796,-0.9994,0.9994,0.03327796,-517.6545,769.0226)"
   class="st7"
   cx="138.7"
   cy="652.09998"
   r="19.9" />
	
		<circle
   id="XMLID_227_"
   transform="matrix(0.03327796,-0.9994,0.9994,0.03327796,-517.6545,769.0226)"
   class="st7"
   cx="138.7"
   cy="652.09998"
   r="19.9" />
	<path
   id="XMLID_235_"
   class="st6"
   d="m 157.4,658.9 c 1.9,-5.2 1.5,-10.6 -0.7,-15.2 -10.2,-3.3 -21.2,2 -24.8,12.1 -1.9,5.2 -1.5,10.6 0.7,15.2 10.1,3.3 21.1,-2 24.8,-12.1 z" />
	
		<circle
   id="XMLID_17_"
   transform="matrix(0.03327796,-0.9994,0.9994,0.03327796,-517.6545,769.0226)"
   class="st5"
   cx="138.7"
   cy="652.09998"
   r="19.9" />
	<path
   id="XMLID_183_"
   class="st6"
   d="m 242.9,473.2 c -10.3,0 -20.7,0 -31,0 -5,0 -9.8,-3.8 -11,-8.8 -5.5,-23.2 -9.3,-46.7 -8.9,-69.9 0.2,-5.9 5.9,-11.1 11.8,-11.1 15.8,0 31.6,0 47.4,0 5.9,0 11.6,5.2 11.8,11.1 0.4,23.2 -3.4,46.7 -8.9,69.9 -1.4,5 -6.2,8.8 -11.2,8.8 z" />
	<path
   id="XMLID_238_"
   class="st7"
   d="m 200.5,464.4 c -5.5,-23.2 -9.3,-46.7 -8.9,-69.9 0.2,-5.9 5.9,-11.1 11.8,-11.1 11.3,0 22.5,0 33.8,0 2.7,12.4 2.7,25.8 -0.7,39.1 -5.1,20.2 -11.7,47.8 -32.3,47.8 -1.8,-1.5 -3.1,-3.6 -3.7,-5.9 z" />
	<path
   id="XMLID_19_"
   class="st5"
   d="m 242.9,473.2 c -10.3,0 -20.7,0 -31,0 -5,0 -9.8,-3.8 -11,-8.8 -5.5,-23.2 -9.3,-46.7 -8.9,-69.9 0.2,-5.9 5.9,-11.1 11.8,-11.1 15.8,0 31.6,0 47.4,0 5.9,0 11.6,5.2 11.8,11.1 0.4,23.2 -3.4,46.7 -8.9,69.9 -1.4,5 -6.2,8.8 -11.2,8.8 z" />
	<rect
   id="XMLID_184_"
   x="209.3"
   y="289.29999"
   class="st6"
   width="35.400002"
   height="78.599998" />
	<rect
   id="XMLID_239_"
   x="209.3"
   y="289.29999"
   class="st6"
   width="10"
   height="78.599998" />
	<rect
   id="XMLID_240_"
   x="232.3"
   y="289.29999"
   class="st6"
   width="12.5"
   height="78.599998" />
	<rect
   id="XMLID_21_"
   x="209.3"
   y="289.29999"
   class="st5"
   width="35.400002"
   height="78.599998" />
	<rect
   id="XMLID_199_"
   x="217.7"
   y="367.89999"
   class="st9"
   width="18.799999"
   height="15.5" />
	<rect
   id="XMLID_22_"
   x="217.7"
   y="367.89999"
   class="st5"
   width="18.799999"
   height="15.5" />
	<line
   id="XMLID_24_"
   class="st8"
   x1="220.60001"
   y1="303.29999"
   x2="220.60001"
   y2="348.70001" />
	<circle
   id="XMLID_241_"
   class="st9"
   cx="228.89999"
   cy="428"
   r="10.5" />
	<circle
   id="XMLID_185_"
   class="st5"
   cx="228.89999"
   cy="428"
   r="10.5" />
</g></g><text
   xml:space="preserve"
   style="font-size:24.9617px;line-height:1.25;font-family:sans-serif;word-spacing:0px;opacity:0.681903;fill:#ffffff;stroke-width:0.624042"
   x="502.36554"
   y="677.2038"
   id="text24076"
   transform="scale(1.003885,0.99613003)"><tspan
     sodipodi:role="line"
     id="tspan24074"
     x="502.36554"
     y="677.2038"
     style="fill:#ffffff;stroke-width:0.624042">ROUND</tspan></text><text
   xml:space="preserve"
   style="font-size:24.9617px;line-height:1.25;font-family:sans-serif;word-spacing:0px;opacity:0.681903;fill:#ffffff;stroke-width:0.624042"
   x="147.82037"
   y="54.364525"
   id="text25522"
   transform="scale(1.003885,0.99613003)"><tspan
     sodipodi:role="line"
     id="tspan25520"
     x="147.82037"
     y="54.364525"
     style="fill:#ffffff;stroke-width:0.624042">SQUEEZY</tspan></text><text
   xml:space="preserve"
   style="font-size:24.9617px;line-height:1.25;font-family:sans-serif;word-spacing:0px;opacity:0.681903;fill:#ffffff;stroke-width:0.624042"
   x="33.088535"
   y="376.78281"
   id="text25934"
   transform="scale(1.003885,0.99613003)"><tspan
     sodipodi:role="line"
     id="tspan25932"
     x="33.088535"
     y="376.78281"
     style="fill:#ffffff;stroke-width:0.624042">MAGIC</tspan></text></svg>
