<?xml version="1.0" encoding="UTF-8" standalone="no"?>
<!-- Created with Inkscape (http://www.inkscape.org/) -->

<svg
   width="210mm"
   height="297mm"
   viewBox="0 0 210 297"
   version="1.1"
   id="svg5"
   inkscape:version="1.1.2 (0a00cf5339, 2022-02-04)"
   sodipodi:docname="personas.svg"
   xmlns:inkscape="http://www.inkscape.org/namespaces/inkscape"
   xmlns:sodipodi="http://sodipodi.sourceforge.net/DTD/sodipodi-0.dtd"
   xmlns="http://www.w3.org/2000/svg"
   xmlns:svg="http://www.w3.org/2000/svg">
  <sodipodi:namedview
     id="namedview7"
     pagecolor="#505050"
     bordercolor="#eeeeee"
     borderopacity="1"
     inkscape:pageshadow="0"
     inkscape:pageopacity="0"
     inkscape:pagecheckerboard="0"
     inkscape:document-units="mm"
     showgrid="false"
     inkscape:zoom="0.30110568"
     inkscape:cx="-142.80701"
     inkscape:cy="714.03503"
     inkscape:window-width="1920"
     inkscape:window-height="1080"
     inkscape:window-x="0"
     inkscape:window-y="0"
     inkscape:window-maximized="1"
     inkscape:current-layer="layer1"
     showguides="false"
     inkscape:lockguides="true" />
  <defs
     id="defs2" />
  <g
     inkscape:label="Layer 1"
     inkscape:groupmode="layer"
     id="layer1">
    <g
       id="g16173"
       inkscape:export-filename="/home/josh/projects/asc-overlays-talk/nathan.png"
       inkscape:export-xdpi="465.89282"
       inkscape:export-ydpi="465.89282">
      <rect
         style="fill:#ffffff;stroke-width:0.964996"
         id="rect1136"
         width="94.08564"
         height="113.94379"
         x="55.60619"
         y="114.1845" />
      <g
         id="g146985"
         transform="matrix(2.1187621,0,0,2.1187621,-55.252172,50.218768)"
         inkscape:export-filename="/home/josh/projects/asc-overlays-talk/nathan.png"
         inkscape:export-xdpi="96"
         inkscape:export-ydpi="96">
        <path
           style="opacity:1;fill:#1f333c;fill-opacity:1;stroke:none;stroke-width:0.264583px;stroke-linecap:butt;stroke-linejoin:miter;stroke-opacity:1"
           d="m 73.777852,40.376183 c 4.700088,0.09815 4.61385,3.030771 4.61385,3.030771 0,0 6.450488,1.030382 6.23076,4.666641 -0.219732,3.636259 -6.859151,4.882047 -6.859151,4.882047 0,0 -6.039776,-7.94e-4 -7.465851,-0.08965 -1.426078,-0.08882 -7.236111,-1.555927 -7.101864,-4.691747 0.13425,-3.135818 6.613409,-4.63835 6.613409,-4.63835 0,0 -0.477534,-3.025539 3.968847,-3.159712 z"
           id="path111003" />
        <path
           style="opacity:1;fill:#b05c27;fill-opacity:1;stroke:none;stroke-width:0.264583px;stroke-linecap:butt;stroke-linejoin:miter;stroke-opacity:1"
           d="m 79.849396,50.051324 c 0.03013,0.845805 0.631194,1.586861 -1.038904,2.26029 0,0 -0.278564,3.058015 -2.709595,3.971526 v 1.862693 l 2.375629,0.227024 0.708961,1.607779 -2.424647,2.287456 -4.711406,-0.04001 -2.852523,-2.544889 0.113861,-1.2057 c 0,0 0.658225,-0.522053 2.772557,-0.38178 l 0.04323,-1.626844 c 0,0 -2.647648,-1.224097 -3.055305,-4.109066 0,0 -1.04416,-0.0012 -0.842772,-1.400491 0.201388,-1.399311 -0.165133,-1.39486 0.594671,-1.439374 0,0 0.137294,-2.440362 0.660421,-3.069893 0.38049,-0.457882 0.398915,-0.980109 4.692503,-0.961908 5.499636,-0.07124 4.810228,2.183869 4.956953,4.146429 0,0 0.689808,-0.328876 0.716366,0.416758 z"
           id="path49293"
           sodipodi:nodetypes="sccccccccccccscsccs" />
        <path
           style="fill:#e6e6e6;fill-opacity:1;stroke:none;stroke-width:0.264583px;stroke-linecap:butt;stroke-linejoin:miter;stroke-opacity:1"
           d="m 65.840611,63.872229 c 0,0 0.579029,-5.064919 4.067454,-5.63957 0,0 -0.321292,3.099302 4.153531,2.865617 4.474824,-0.233685 4.41493,-2.725419 4.41493,-2.725419 0,0 3.719589,0.09057 3.983574,6.038645 0,0 -12.180467,1.567756 -16.619489,-0.539273 z"
           id="path50283"
           sodipodi:nodetypes="ccsccc" />
        <path
           style="opacity:0.678005;fill:#642a04;fill-opacity:0.987965;stroke:none;stroke-width:0.264583px;stroke-linecap:butt;stroke-linejoin:miter;stroke-opacity:1"
           d="m 72.379384,57.253637 c 0,0 1.22184,0.300574 1.773118,0.280671 0.551281,-0.01991 1.803235,-0.42886 1.803235,-0.42886 l 0.02043,-0.913993 c 0,0 -1.336528,1.268599 -3.74374,0.199329 0,0 -0.184091,0.872537 0.146957,0.862853 z"
           id="path63682" />
        <path
           style="opacity:0.588468;fill:#652a03;fill-opacity:1;stroke:none;stroke-width:0.264583px;stroke-linecap:butt;stroke-linejoin:miter;stroke-opacity:1"
           d="m 73.959965,52.476558 c 1.130131,0 1.042765,-0.516903 1.042765,-0.516903 0,0 -1.674603,0.02853 -1.940242,0.0131 -0.265639,-0.01545 -0.04033,0.601802 0.897477,0.503817 z"
           id="path73354" />
        <path
           style="fill:#411f07;fill-opacity:1;stroke:none;stroke-width:0.264583px;stroke-linecap:butt;stroke-linejoin:miter;stroke-opacity:1"
           d="m 73.892059,53.231785 c 0.612999,-0.01953 1.404876,0.01235 1.638474,0.121888 0.233596,0.109547 0.209911,1.567634 -1.321731,1.68536 -1.531643,0.117723 -1.828647,-1.098996 -1.843589,-1.227454 -0.01493,-0.128457 -0.245487,-0.693805 1.526846,-0.579794 z"
           id="path99954" />
        <path
           style="fill:#ffffff;stroke:none;stroke-width:0.264583px;stroke-linecap:butt;stroke-linejoin:miter;stroke-opacity:1"
           d="m 72.640107,53.327937 0.03603,0.594259 2.652977,0.01154 0.136457,-0.622217 c 0,0 -1.60641,-0.346502 -2.825462,0.01642 z"
           id="path100069"
           sodipodi:nodetypes="ccccsc" />
        <path
           style="fill:#e14e57;fill-opacity:1;stroke:none;stroke-width:0.264583px;stroke-linecap:butt;stroke-linejoin:miter;stroke-opacity:1"
           d="m 72.950511,54.60786 c 0,0 0.07558,-0.32269 0.908193,-0.307081 0,0 1.096484,-0.353354 1.193417,0.325339 0.09693,0.678691 -1.527939,0.389709 -1.527939,0.389709 0,0 -0.588842,-0.0031 -0.573671,-0.407967 z"
           id="path100220" />
        <path
           style="fill:#1f333c;fill-opacity:1;stroke:none;stroke-width:0.264583px;stroke-linecap:butt;stroke-linejoin:miter;stroke-opacity:1"
           d="m 68.552845,49.769111 0.479256,0.07573 c 0,0 -0.07101,2.391447 2.029055,2.394612 2.100066,0.0032 2.494798,-2.021441 2.430012,-2.404428 l 1.002059,-0.0118 c 0,0 -0.439352,2.293142 2.135035,2.412902 2.574387,0.11976 2.39413,-2.327895 2.39413,-2.327895 l 0.724032,-0.118688 -0.0974,-0.348285 -0.496364,-0.163792 c 0,0 -0.166205,-0.72977 -2.482033,-0.649162 -2.315828,0.08061 -2.00428,0.561205 -2.00428,0.561205 l -1.079611,-0.08077 c 0,0 -0.665626,-0.653719 -2.287456,-0.532779 -1.62183,0.12094 -2.271689,0.44005 -2.271689,0.44005 l -0.462683,0.229491 z"
           id="path117354" />
        <path
           style="opacity:0.11432;fill:#ffffff;stroke:none;stroke-width:0.264583px;stroke-linecap:butt;stroke-linejoin:miter;stroke-opacity:1"
           d="m 71.278474,48.984315 c 1.216051,0 1.667256,0.808233 1.667256,0.808233 l -0.0606,0.373118 -3.242963,0.02638 c 0,0 -0.671952,-1.332164 1.63631,-1.207738 z"
           id="path117356" />
        <path
           style="opacity:0.11432;fill:#ffffff;stroke:none;stroke-width:0.264583px;stroke-linecap:butt;stroke-linejoin:miter;stroke-opacity:1"
           d="m 76.946781,49.123704 c 1.216051,0 1.667256,0.808233 1.667256,0.808233 l -0.0606,0.373118 -3.242963,0.02638 c 0,0 -0.671952,-1.332164 1.63631,-1.207738 z"
           id="path117438" />
        <path
           style="fill:#152329;fill-opacity:1;stroke:none;stroke-width:0.264583px;stroke-linecap:butt;stroke-linejoin:miter;stroke-opacity:1"
           d="m 68.671532,47.366078 0.410821,0.06591 c 0,0 0.238339,-0.665465 0.782624,-1.460691 0,0 -1.178589,0.587244 -1.193445,1.394781"
           id="path129987"
           sodipodi:nodetypes="cccc" />
      </g>
      <text
         xml:space="preserve"
         style="font-size:5.64338px;line-height:1.25;font-family:sans-serif;word-spacing:0px;fill:#1f333c;fill-opacity:1;stroke-width:0.264583"
         x="101.7991"
         y="196.06709"
         id="text3486"><tspan
           sodipodi:role="line"
           style="font-style:normal;font-variant:normal;font-weight:bold;font-stretch:normal;font-family:'Trebuchet MS';-inkscape-font-specification:'Trebuchet MS';text-align:center;text-anchor:middle;fill:#1f333c;fill-opacity:1;stroke-width:0.264583"
           x="101.7991"
           y="196.06709"
           id="tspan3834">Let's call him, </tspan><tspan
           sodipodi:role="line"
           style="font-style:normal;font-variant:normal;font-weight:bold;font-stretch:normal;font-family:'Trebuchet MS';-inkscape-font-specification:'Trebuchet MS';text-align:center;text-anchor:middle;fill:#1f333c;fill-opacity:1;stroke-width:0.264583"
           x="101.7991"
           y="203.24896"
           id="tspan42709">Nathan</tspan></text>
    </g>
    <g
       id="g2811"
       inkscape:export-filename="/home/josh/projects/asc-overlays-talk/ellen.png"
       inkscape:export-xdpi="465.89282"
       inkscape:export-ydpi="465.89282"
       transform="translate(-170.95193,-5.1709474)">
      <rect
         style="fill:#ffffff;stroke-width:0.964996"
         id="rect2779"
         width="94.08564"
         height="113.94379"
         x="55.60619"
         y="114.1845" />
      <g
         id="g49204"
         transform="matrix(2.1187621,0,0,2.1187621,-97.730396,-51.271918)"
         inkscape:export-filename="/home/josh/projects/asc-overlays-talk/ellen.png"
         inkscape:export-xdpi="96"
         inkscape:export-ydpi="96">
        <path
           style="fill:#2d1b19;fill-opacity:1;stroke:none;stroke-width:0.264583px;stroke-linecap:butt;stroke-linejoin:miter;stroke-opacity:1"
           d="m 89.632508,106.36117 c 0,0 -0.932124,-0.35494 -0.905951,-0.60679 0.02617,-0.25186 -2.302098,0.0594 -2.978611,-0.58523 -0.676513,-0.64466 -2.643306,-2.79562 -3.086412,-3.30019 -0.443108,-0.50457 -0.238556,-3.92114 0.03132,-4.309543 0.269875,-0.388403 0.815205,-2.484768 0.835478,-3.007894 0.02027,-0.523127 0.964194,-1.392714 1.526259,-1.517571 0.562063,-0.124854 -0.02413,-1.498798 2.298235,-2.391876 2.322372,-0.893079 2.35219,-0.728644 4.167632,-1.268505 1.815443,-0.539858 4.599585,-0.340775 5.498025,-0.02402 0.898443,0.316751 2.17038,0.848995 3.012397,0.925367 0.84203,0.07637 2.84218,2.027394 2.98602,2.469322 0.14384,0.441928 1.5816,1.124019 1.64178,3.093707 0.0602,1.969685 1.11125,2.882503 0.63253,4.552063 -0.47871,1.66956 -0.49459,3.31048 -1.85566,3.58186 -1.36107,0.27138 -1.76481,1.88066 -4.283371,1.51918 0,0 -3.172437,2.56564 -9.519671,0.87012 z"
           id="path46542" />
        <path
           style="fill:#65c8ff;fill-opacity:1;stroke:none;stroke-width:0.264583px;stroke-linecap:butt;stroke-linejoin:miter;stroke-opacity:1"
           d="m 85.457915,112.72141 c 0,0 0.01426,-6.27791 8.31496,-6.45308 8.300695,-0.17518 9.155795,4.94764 9.119085,7.04402 -0.0367,2.09638 -14.730249,1.4318 -17.434045,-0.59094 z"
           id="path869" />
        <path
           style="fill:none;stroke:#ffffff;stroke-width:0.665;stroke-linecap:round;stroke-linejoin:miter;stroke-miterlimit:4;stroke-dasharray:none;stroke-opacity:1"
           d="m 91.060433,109.49452 v 5.6541"
           id="path1466" />
        <path
           style="fill:none;stroke:#ffffff;stroke-width:0.665;stroke-linecap:round;stroke-linejoin:miter;stroke-miterlimit:4;stroke-dasharray:none;stroke-opacity:1"
           d="m 97.045218,109.67944 v 3.29798"
           id="path1468" />
        <path
           style="fill:#28b2ff;fill-opacity:1;stroke:none;stroke-width:0.264583px;stroke-linecap:butt;stroke-linejoin:miter;stroke-opacity:1"
           d="m 88.446365,107.81701 c 0,0 0.343128,2.28315 5.325674,2.24652 4.982543,-0.0366 6.147252,-2.3929 6.147252,-2.3929 0,0 -5.637254,-3.30367 -11.472926,0.14638 z"
           id="path1585" />
        <path
           style="fill:#65c8ff;fill-opacity:1;stroke:none;stroke-width:0.264583px;stroke-linecap:butt;stroke-linejoin:miter;stroke-opacity:1"
           d="m 93.772039,110.06353 c 3.816548,-0.0977 9.346861,-4.27436 0.496496,-4.50236 -8.850363,-0.22799 -4.257826,4.28263 -0.496496,4.50236 z"
           id="path1470" />
        <path
           style="fill:#b05827;fill-opacity:1;stroke:none;stroke-width:0.264583px;stroke-linecap:butt;stroke-linejoin:miter;stroke-opacity:1"
           d="m 93.831353,109.0091 c 2.109761,0 2.215719,-1.61471 2.215719,-2.20191 0,-0.58721 -0.0223,-2.7148 -0.0223,-2.7148 h -4.078296 c 0,0 -0.0013,2.0905 -0.0013,2.90351 0,0.813 0.393724,2.0132 1.88609,2.0132 z"
           id="path1587" />
        <path
           style="opacity:1;fill:#b05827;fill-opacity:1;stroke:none;stroke-width:0.264583px;stroke-linecap:butt;stroke-linejoin:miter;stroke-opacity:1"
           d="m 93.932228,93.895594 c 4.087548,0 5.104884,3.822692 5.104884,3.822692 0,0 1.093488,0.0518 0.998528,1.734013 -0.09496,1.682211 -0.867464,1.605451 -0.867464,1.605451 0,0 -0.787442,4.21778 -3.933047,4.58716 -3.145605,0.36937 -5.073332,-1.78415 -5.276905,-2.14223 -0.203573,-0.35807 -0.757182,-1.63799 -0.736854,-2.2704 0.02032,-0.63241 -1.127316,0.26425 -0.95848,-1.718545 0.168836,-1.982792 0.860105,-1.584671 1.001562,-1.620546 0.141454,-0.03588 0.03777,-3.411069 4.667776,-3.997595 z"
           id="path14760" />
        <path
           style="fill:none;stroke:#2d1b19;stroke-width:0.565;stroke-linecap:butt;stroke-linejoin:miter;stroke-miterlimit:4;stroke-dasharray:none;stroke-opacity:1"
           d="m 91.172307,96.981961 c 2.014953,-0.03709 3.181328,3.117769 0.428611,4.051829 -2.752717,0.93405 -3.365105,-3.862665 -0.428611,-4.051829 z"
           id="path20769" />
        <path
           style="fill:none;stroke:#2d1b19;stroke-width:0.465;stroke-linecap:butt;stroke-linejoin:miter;stroke-miterlimit:4;stroke-dasharray:none;stroke-opacity:1"
           d="m 93.155631,98.343946 c 0,0 0.102394,-0.474194 0.915247,-0.502713 0.812853,-0.02852 0.879673,0.601088 0.879673,0.601088"
           id="path20771" />
        <path
           style="fill:none;stroke:#2d1b19;stroke-width:0.565;stroke-linecap:butt;stroke-linejoin:miter;stroke-miterlimit:4;stroke-dasharray:none;stroke-opacity:1"
           d="m 96.579898,97.089742 c 1.76458,-0.0578 3.258007,3.028878 0.3448,3.931228 -2.913208,0.90235 -2.943321,-3.873737 -0.3448,-3.931228 z"
           id="path20773" />
        <path
           style="fill:none;stroke:#2d1b19;stroke-width:0.264583px;stroke-linecap:butt;stroke-linejoin:miter;stroke-opacity:1"
           d="m 98.437238,98.265447 c 0,0 0.696884,-0.426945 1.268011,-0.168079"
           id="path20775" />
        <path
           style="fill:none;stroke:#2d1b19;stroke-width:0.264583px;stroke-linecap:butt;stroke-linejoin:miter;stroke-opacity:1"
           d="m 89.570038,98.049357 c 0,0 -0.620353,-0.372105 -1.135431,0.210097"
           id="path20777" />
        <path
           style="opacity:0.827693;fill:none;stroke:#552200;stroke-width:0.264583px;stroke-linecap:butt;stroke-linejoin:miter;stroke-opacity:1"
           d="m 90.651768,99.50107 c 0,0 0.752404,0.7009 1.702237,0.04816"
           id="path20892" />
        <path
           style="opacity:0.827693;fill:none;stroke:#552200;stroke-width:0.264583px;stroke-linecap:butt;stroke-linejoin:miter;stroke-opacity:1"
           d="m 93.050203,102.50082 c 0,0 0.331451,0.54185 1.094398,0.48413 0.762945,-0.0577 1.11791,-0.6516 1.11791,-0.6516"
           id="path20894" />
        <path
           style="opacity:0.189548;fill:#7a3100;fill-opacity:1;stroke:none;stroke-width:0.264583px;stroke-linecap:butt;stroke-linejoin:miter;stroke-opacity:1"
           d="m 93.268794,100.89756 c 0,0 0.274568,0.37211 0.913048,0.39236 0.638479,0.0202 0.673293,-0.42656 0.673293,-0.42656 0,0 -0.790554,-1.645125 -1.586341,0.0342 z"
           id="path20896" />
        <path
           style="opacity:0.827693;fill:none;stroke:#552200;stroke-width:0.264583px;stroke-linecap:butt;stroke-linejoin:miter;stroke-opacity:1"
           d="m 95.856088,99.597699 c 0,0 0.752404,0.700901 1.702237,0.04816"
           id="path29643" />
        <path
           style="fill:#65c8ff;fill-opacity:1;stroke:none;stroke-width:0.264583px;stroke-linecap:butt;stroke-linejoin:miter;stroke-opacity:1"
           d="m 89.13551,97.879915 c 0,0 -1.13179,-5.193475 4.953873,-5.3906 6.085667,-0.197128 4.947727,5.228968 4.947727,5.228968 0,0 -1.049875,-3.973173 -5.104884,-3.822689 -4.055007,0.150482 -4.796716,3.984321 -4.796716,3.984321 z"
           id="path40417" />
      </g>
      <text
         xml:space="preserve"
         style="font-size:5.64338px;line-height:1.25;font-family:sans-serif;word-spacing:0px;fill:#1f333c;fill-opacity:1;stroke-width:0.264583"
         x="102.69588"
         y="201.08954"
         id="text3486-9"><tspan
           sodipodi:role="line"
           style="font-style:normal;font-variant:normal;font-weight:bold;font-stretch:normal;font-family:'Trebuchet MS';-inkscape-font-specification:'Trebuchet MS';text-align:center;text-anchor:middle;fill:#1f333c;fill-opacity:1;stroke-width:0.264583"
           x="102.69588"
           y="201.08954"
           id="tspan42709-7">Let's call her,</tspan><tspan
           sodipodi:role="line"
           style="font-style:normal;font-variant:normal;font-weight:bold;font-stretch:normal;font-family:'Trebuchet MS';-inkscape-font-specification:'Trebuchet MS';text-align:center;text-anchor:middle;fill:#1f333c;fill-opacity:1;stroke-width:0.264583"
           x="102.69588"
           y="208.27141"
           id="tspan44527">Ellen</tspan></text>
    </g>
    <rect
       style="fill:#566d74;fill-opacity:1;stroke:#455a64;stroke-width:0.964999;stroke-linejoin:bevel"
       id="rect30416"
       width="23.876085"
       height="30.027887"
       x="24.705885"
       y="79.666618" />
    <rect
       style="fill:#455a64;fill-opacity:1;stroke:#455a64;stroke-width:0.964999;stroke-linejoin:bevel"
       id="rect29734"
       width="23.876085"
       height="30.027887"
       x="43.914703"
       y="79.666618" />
    <rect
       style="fill:#1f333c;fill-opacity:1;stroke:#455a64;stroke-width:0.964999;stroke-linejoin:bevel"
       id="rect29838"
       width="23.876085"
       height="30.027887"
       x="59.347832"
       y="79.666618" />
    <g
       id="g76622"
       inkscape:export-filename="/home/josh/projects/asc-overlays-talk/jim.png"
       inkscape:export-xdpi="465.89282"
       inkscape:export-ydpi="465.89282"
       transform="translate(198.14303,-1.4879649)">
      <rect
         style="fill:#ffffff;stroke-width:0.964996"
         id="rect76588"
         width="94.08564"
         height="113.94379"
         x="55.60619"
         y="114.1845" />
      <g
         id="g217661"
         transform="matrix(2.1187621,0,0,2.1187621,-88.280722,80.865204)"
         inkscape:export-filename="/home/josh/projects/asc-overlays-talk/jim.png"
         inkscape:export-xdpi="96"
         inkscape:export-ydpi="96">
        <path
           style="fill:#4a312c;fill-opacity:1;stroke:none;stroke-width:0.264583px;stroke-linecap:butt;stroke-linejoin:miter;stroke-opacity:1"
           d="m 80.598313,49.00759 c 0,0 -1.989232,-1.212884 -1.368803,-2.728915 0.620427,-1.516031 1.839897,-2.791777 1.875848,-3.125353 0.03595,-0.333577 -0.343739,-1.150904 -0.821423,-1.470068 -0.477686,-0.319164 -1.388152,-1.784681 -1.16926,-2.490512 0.218896,-0.705834 0.373624,-1.995234 1.281362,-2.402075 0.907737,-0.406845 1.738111,-1.477503 1.615085,-2.276473 -0.123023,-0.798973 3.644149,-5.742532 3.644149,-5.742532 l 7.900225,-0.27396 3.369429,5.938824 c 0,0 -0.363307,1.067927 0.556869,1.647095 0.920175,0.579167 2.740206,2.144498 2.308632,3.656433 -0.43157,1.511935 -2.582439,2.72746 -1.750854,3.705582 0.831588,0.978125 0.813991,2.760985 -1.04335,3.503829 -1.857343,0.742847 -16.397909,2.058125 -16.397909,2.058125 z"
           id="path187936" />
        <path
           style="fill:#edb98a;fill-opacity:1;stroke:none;stroke-width:0.264583px;stroke-linecap:butt;stroke-linejoin:miter;stroke-opacity:1"
           d="m 85.597991,42.422444 c 0,0 1.08744,-0.553587 1.656154,-0.539858 l 0.114452,-1.567125 c 0,0 -2.737053,-1.824237 -2.788111,-4.010919 0,0 -0.955614,-0.317716 -0.875917,-0.800618 0.0797,-0.482902 -0.0055,-2.220899 -0.0055,-2.220899 l 4.986699,-3.776441 3.246771,-1.155017 3.586476,5.139657 -0.01888,1.737782 c 0,0 0.201764,0.891364 -1.051079,0.904128 0,0 0.194822,2.70541 -2.817792,4.01521 l -0.02607,1.808684 c 0,0 1.897177,-0.322543 1.867894,0.306667 -0.02928,0.62921 -0.293796,3.162033 -0.293796,3.162033 l -6.840863,-0.907131 z"
           id="path147475" />
        <path
           style="fill:none;fill-opacity:1;stroke:#635141;stroke-width:0.465;stroke-linecap:butt;stroke-linejoin:miter;stroke-miterlimit:4;stroke-dasharray:none;stroke-opacity:1"
           d="m 87.83262,31.665594 c 0,0 -1.397331,-0.332967 -2.012373,0.18628 -0.615046,0.51925 -0.520311,1.278099 -0.520311,1.278099"
           id="path216707" />
        <ellipse
           style="opacity:1;fill:#ffffff;fill-opacity:0.928058;stroke:none;stroke-width:0.465;stroke-linecap:round;stroke-miterlimit:4;stroke-dasharray:none;stroke-opacity:1"
           id="path147499"
           cx="87.212822"
           cy="34.042694"
           rx="1.3431318"
           ry="1.3715031" />
        <ellipse
           style="opacity:1;fill:#ffffff;fill-opacity:0.928058;stroke:none;stroke-width:0.465;stroke-linecap:round;stroke-miterlimit:4;stroke-dasharray:none;stroke-opacity:1"
           id="ellipse147599"
           cx="91.752769"
           cy="34.028965"
           rx="1.3431318"
           ry="1.3715031" />
        <ellipse
           style="opacity:0.927844;fill:#1a1a1a;fill-opacity:1;stroke:none;stroke-width:0.465;stroke-linecap:round;stroke-miterlimit:4;stroke-dasharray:none;stroke-opacity:1"
           id="ellipse153248"
           cx="87.22876"
           cy="33.174358"
           rx="0.75673378"
           ry="0.51178133" />
        <path
           style="fill:#c69a71;fill-opacity:1;stroke:none;stroke-width:0.264583px;stroke-linecap:butt;stroke-linejoin:miter;stroke-opacity:1"
           d="m 89.544283,36.338007 c 1.006779,-0.04746 0.98479,-0.613923 0.98479,-0.613923 l -2.055336,-0.02273 c 0,0 -0.246923,0.573701 1.070546,0.636664 z"
           id="path153589" />
        <path
           style="opacity:0.652914;fill:none;fill-opacity:1;stroke:#1a1a1a;stroke-width:0.265;stroke-linecap:round;stroke-linejoin:miter;stroke-miterlimit:4;stroke-dasharray:none;stroke-opacity:1"
           d="m 88.350544,37.540276 c 0,0 0.38749,0.584052 1.276387,0.508429 0.888894,-0.07562 1.093179,-0.56823 1.093179,-0.56823"
           id="path160059" />
        <path
           style="fill:none;fill-opacity:1;stroke:#635141;stroke-width:0.465;stroke-linecap:butt;stroke-linejoin:miter;stroke-miterlimit:4;stroke-dasharray:none;stroke-opacity:1"
           d="m 90.821969,31.702922 c 0,0 1.397331,-0.332967 2.012373,0.18628 0.615046,0.51925 0.520311,1.278099 0.520311,1.278099"
           id="path188568" />
        <path
           style="fill:#d4a67b;fill-opacity:1;stroke:none;stroke-width:0.264583px;stroke-linecap:butt;stroke-linejoin:miter;stroke-opacity:1"
           d="m 87.368596,40.315462 c 0,0 1.151453,0.395927 2.272816,0.290954 1.121359,-0.104971 1.989851,-0.458073 1.989851,-0.458073 l -0.02136,1.027305 c 0,0 -1.103879,0.306158 -2.179921,0.325726 -1.076042,0.01958 -1.08484,-0.0085 -1.08484,-0.0085 l -1.052946,-0.292276 0.07639,-0.885141"
           id="path188570"
           sodipodi:nodetypes="csccsccc" />
        <path
           style="fill:#25557d;fill-opacity:1;stroke:none;stroke-width:0.264583px;stroke-linecap:butt;stroke-linejoin:miter;stroke-opacity:1"
           d="m 80.598313,49.00759 c 0,0 -0.927727,-6.098489 5.848993,-7.150211 0,0 0.01384,2.345111 2.913074,2.190008 2.899236,-0.155104 3.286888,-2.207384 3.286888,-2.207384 0,0 5.15682,-0.145557 5.321737,6.600217 -4.321394,1.099829 -17.370692,0.56737 -17.370692,0.56737"
           id="path147192"
           sodipodi:nodetypes="ccsccc" />
        <path
           style="fill:#5c4541;fill-opacity:1;stroke:none;stroke-width:0.264583px;stroke-linecap:butt;stroke-linejoin:miter;stroke-opacity:1"
           d="m 96.924925,34.436526 c 0,0 0.801401,-2.780552 0.422545,-4.028767 -0.378856,-1.248215 -0.799048,-3.616538 -3.466361,-4.399431 -2.667313,-0.782893 -7.069854,-0.886956 -9.326834,0.116804 -2.25698,1.00376 -3.393472,4.209207 -3.142949,5.460304 0.250522,1.251097 0.172172,1.406507 0.623424,3.002556 0,0 2.02212,-1.798484 3.74946,-2.142755 1.72734,-0.34427 4.138745,-1.499192 4.994906,-3.073055 0,0 1.794765,3.551348 6.145809,5.064344 z"
           id="path187940"
           sodipodi:nodetypes="csssscscc" />
        <ellipse
           style="opacity:0.927844;fill:#1a1a1a;fill-opacity:1;stroke:none;stroke-width:0.465;stroke-linecap:round;stroke-miterlimit:4;stroke-dasharray:none;stroke-opacity:1"
           id="ellipse217566"
           cx="91.684586"
           cy="33.160706"
           rx="0.75673378"
           ry="0.51178133" />
      </g>
      <text
         xml:space="preserve"
         style="font-size:5.64338px;line-height:1.25;font-family:sans-serif;word-spacing:0px;fill:#1f333c;fill-opacity:1;stroke-width:0.264583"
         x="101.7991"
         y="196.06709"
         id="text76620"><tspan
           sodipodi:role="line"
           style="font-style:normal;font-variant:normal;font-weight:bold;font-stretch:normal;font-family:'Trebuchet MS';-inkscape-font-specification:'Trebuchet MS';text-align:center;text-anchor:middle;fill:#1f333c;fill-opacity:1;stroke-width:0.264583"
           x="101.7991"
           y="196.06709"
           id="tspan76616">Let's call them, </tspan><tspan
           sodipodi:role="line"
           style="font-style:normal;font-variant:normal;font-weight:bold;font-stretch:normal;font-family:'Trebuchet MS';-inkscape-font-specification:'Trebuchet MS';text-align:center;text-anchor:middle;fill:#1f333c;fill-opacity:1;stroke-width:0.264583"
           x="101.7991"
           y="203.24896"
           id="tspan76618">Jim</tspan></text>
    </g>
  </g>
</svg>
