<?xml version="1.0" encoding="UTF-8" standalone="no"?>
<!-- Created with Inkscape (http://www.inkscape.org/) -->

<svg
   width="44.90654mm"
   height="60.596722mm"
   viewBox="0 0 44.90654 60.596721"
   version="1.1"
   id="svg5"
   sodipodi:docname="qr-slides.svg"
   inkscape:version="1.1.2 (0a00cf5339, 2022-02-04)"
   xmlns:inkscape="http://www.inkscape.org/namespaces/inkscape"
   xmlns:sodipodi="http://sodipodi.sourceforge.net/DTD/sodipodi-0.dtd"
   xmlns="http://www.w3.org/2000/svg"
   xmlns:svg="http://www.w3.org/2000/svg">
  <sodipodi:namedview
     id="namedview7"
     pagecolor="#505050"
     bordercolor="#eeeeee"
     borderopacity="1"
     inkscape:pageshadow="0"
     inkscape:pageopacity="0"
     inkscape:pagecheckerboard="0"
     inkscape:document-units="mm"
     showgrid="false"
     inkscape:zoom="2.9206566"
     inkscape:cx="57.8637"
     inkscape:cy="106.6541"
     inkscape:window-width="1920"
     inkscape:window-height="1019"
     inkscape:window-x="0"
     inkscape:window-y="0"
     inkscape:window-maximized="1"
     inkscape:current-layer="layer1" />
  <defs
     id="defs2" />
  <g
     inkscape:label="Layer 1"
     inkscape:groupmode="layer"
     id="layer1"
     transform="translate(-104.05207,-147.96392)">
    <g
       style="fill:#1a1a1a;stroke:none;stroke-width:1.26349"
       id="g834"
       transform="matrix(0.20940631,0,0,0.20940631,112.15053,159.18442)">
      <path
         d="m 143.6,154 h -3.2 c -0.22091,0 -0.4,-0.17909 -0.4,-0.4 V 150 h 3.6 c 0.22091,0 0.4,0.17909 0.4,0.4 v 3.2 c 0,0.22091 -0.17909,0.4 -0.4,0.4 z m -16,0 h -7.2 c -0.22091,0 -0.4,-0.17909 -0.4,-0.4 v -3.2 c 0,-0.22091 -0.17909,-0.4 -0.4,-0.4 H 116 v -4 h 3.6 c 0.22091,0 0.4,-0.17909 0.4,-0.4 v -3.2 c 0,-0.22091 0.17909,-0.4 0.4,-0.4 h 3.2 c 0.22091,0 0.4,0.17909 0.4,0.4 v 7.2 c 0,0.22091 0.17909,0.4 0.4,0.4 h 3.6 v 3.6 c 0,0.22091 -0.17909,0.4 -0.4,0.4 z m -12,0 h -11.2 c -0.22091,0 -0.4,-0.17909 -0.4,-0.4 v -3.2 c 0,-0.22091 -0.17909,-0.4 -0.4,-0.4 h -7.2 c -0.220914,0 -0.4,0.17909 -0.4,0.4 v 3.2 c 0,0.22091 -0.179086,0.4 -0.4,0.4 h -3.2 c -0.220914,0 -0.4,-0.17909 -0.4,-0.4 v -7.2 c 0,-0.22091 0.179086,-0.4 0.4,-0.4 h 11.2 c 0.22091,0 0.4,-0.17909 0.4,-0.4 v -3.2 c 0,-0.22091 0.17909,-0.4 0.4,-0.4 h 3.6 v 7.6 c 0,0.22091 0.17909,0.4 0.4,0.4 h 7.6 v 3.6 c 0,0.22091 -0.17909,0.4 -0.4,0.4 z m -28,0 h -3.2 c -0.220914,0 -0.4,-0.17909 -0.4,-0.4 v -3.2 c 0,-0.22091 0.179086,-0.4 0.4,-0.4 h 3.2 c 0.220914,0 0.4,0.17909 0.4,0.4 v 3.2 c 0,0.22091 -0.179086,0.4 -0.4,0.4 z m -12,0 h -3.2 c -0.220914,0 -0.4,-0.17909 -0.4,-0.4 v -3.2 c 0,-0.22091 0.179086,-0.4 0.4,-0.4 h 3.2 c 0.220914,0 0.4,0.17909 0.4,0.4 v 3.2 c 0,0.22091 -0.179086,0.4 -0.4,0.4 z m -8,0 H 60.4 C 60.179086,154 60,153.82091 60,153.6 V 150 h 3.6 c 0.220914,0 0.4,-0.17909 0.4,-0.4 V 142 h 3.6 c 0.220914,0 0.4,-0.17909 0.4,-0.4 V 138 h 3.6 c 0.220914,0 0.4,-0.17909 0.4,-0.4 v -3.2 c 0,-0.22091 0.179086,-0.4 0.4,-0.4 h 3.2 c 0.220914,0 0.4,0.17909 0.4,0.4 v 3.2 c 0,0.22091 0.179086,0.4 0.4,0.4 h 3.2 c 0.220914,0 0.4,-0.17909 0.4,-0.4 v -3.2 c 0,-0.22091 0.179086,-0.4 0.4,-0.4 h 3.2 c 0.220914,0 0.4,0.17909 0.4,0.4 v 3.2 c 0,0.22091 0.179086,0.4 0.4,0.4 h 3.2 c 0.220914,0 0.4,0.17909 0.4,0.4 v 7.2 c 0,0.22091 -0.179086,0.4 -0.4,0.4 h -3.2 c -0.220914,0 -0.4,-0.17909 -0.4,-0.4 v -3.2 c 0,-0.22091 -0.179086,-0.4 -0.4,-0.4 h -3.2 c -0.220914,0 -0.4,0.17909 -0.4,0.4 v 3.2 c 0,0.22091 -0.179086,0.4 -0.4,0.4 h -3.2 c -0.220914,0 -0.4,-0.17909 -0.4,-0.4 v -3.2 c 0,-0.22091 -0.179086,-0.4 -0.4,-0.4 h -3.2 c -0.220914,0 -0.4,0.17909 -0.4,0.4 v 3.2 c 0,0.22091 -0.179086,0.4 -0.4,0.4 h -3.2 c -0.220914,0 -0.4,0.17909 -0.4,0.4 v 7.2 c 0,0.22091 -0.179086,0.4 -0.4,0.4 z m -12,0 h -7.2 c -0.220914,0 -0.4,-0.17909 -0.4,-0.4 v -19.2 c 0,-0.22091 0.179086,-0.4 0.4,-0.4 h 3.2 c 0.220914,0 0.4,0.17909 0.4,0.4 v 3.2 c 0,0.22091 0.179086,0.4 0.4,0.4 H 64 v 4 H 52.4 c -0.220914,0 -0.4,0.17909 -0.4,0.4 v 3.2 c 0,0.22091 0.179086,0.4 0.4,0.4 h 7.2 c 0.220914,0 0.4,0.17909 0.4,0.4 v 3.6 h -3.6 c -0.220914,0 -0.4,0.17909 -0.4,0.4 v 3.2 c 0,0.22091 -0.179086,0.4 -0.4,0.4 z m -12,0 H 16.4 c -0.220914,0 -0.4,-0.17909 -0.4,-0.4 v -27.2 c 0,-0.22091 0.179086,-0.4 0.4,-0.4 h 27.2 c 0.220914,0 0.4,0.17909 0.4,0.4 v 27.2 c 0,0.22091 -0.179086,0.4 -0.4,0.4 z m 96,-4 H 128 v -3.6 c 0,-0.22091 0.17909,-0.4 0.4,-0.4 h 3.2 c 0.22091,0 0.4,-0.17909 0.4,-0.4 v -3.2 c 0,-0.22091 -0.17909,-0.4 -0.4,-0.4 h -3.2 c -0.22091,0 -0.4,-0.17909 -0.4,-0.4 v -3.2 c 0,-0.22091 -0.17909,-0.4 -0.4,-0.4 H 112 v -3.6 c 0,-0.22091 -0.17909,-0.4 -0.4,-0.4 h -3.2 c -0.22091,0 -0.4,0.17909 -0.4,0.4 v 3.6 h -3.6 c -0.22091,0 -0.4,-0.17909 -0.4,-0.4 v -3.2 c 0,-0.22091 -0.17909,-0.4 -0.4,-0.4 h -7.2 c -0.220914,0 -0.4,0.17909 -0.4,0.4 v 7.2 c 0,0.22091 -0.179086,0.4 -0.4,0.4 h -3.2 c -0.220914,0 -0.4,-0.17909 -0.4,-0.4 v -7.2 C 92,134.17909 91.820914,134 91.6,134 H 88.4 C 88.179086,134 88,133.82091 88,133.6 V 130 h 7.6 c 0.220914,0 0.4,-0.17909 0.4,-0.4 v -3.2 c 0,-0.22091 -0.179086,-0.4 -0.4,-0.4 h -7.2 c -0.220914,0 -0.4,0.17909 -0.4,0.4 v 3.6 h -3.6 c -0.220914,0 -0.4,-0.17909 -0.4,-0.4 v -3.2 C 84,126.17909 83.820914,126 83.6,126 H 80 v -4 h 19.6 c 0.220914,0 0.4,0.17909 0.4,0.4 v 3.2 c 0,0.22091 0.17909,0.4 0.4,0.4 h 3.2 c 0.22091,0 0.4,0.17909 0.4,0.4 v 3.2 c 0,0.22091 0.17909,0.4 0.4,0.4 h 3.2 c 0.22091,0 0.4,-0.17909 0.4,-0.4 v -3.2 c 0,-0.22091 0.17909,-0.4 0.4,-0.4 h 3.2 c 0.22091,0 0.4,-0.17909 0.4,-0.4 v -3.2 c 0,-0.22091 -0.17909,-0.4 -0.4,-0.4 h -7.2 c -0.22091,0 -0.4,-0.17909 -0.4,-0.4 V 118 h 3.6 c 0.22091,0 0.4,-0.17909 0.4,-0.4 V 114 h 3.6 c 0.22091,0 0.4,0.17909 0.4,0.4 v 3.2 c 0,0.22091 0.17909,0.4 0.4,0.4 h 3.2 c 0.22091,0 0.4,-0.17909 0.4,-0.4 v -7.2 c 0,-0.22091 0.17909,-0.4 0.4,-0.4 h 3.6 v 7.6 c 0,0.22091 0.17909,0.4 0.4,0.4 h 3.2 c 0.22091,0 0.4,-0.17909 0.4,-0.4 v -3.2 c 0,-0.22091 0.17909,-0.4 0.4,-0.4 h 3.6 v 3.6 c 0,0.22091 0.17909,0.4 0.4,0.4 h 3.6 v 3.6 c 0,0.22091 0.17909,0.4 0.4,0.4 h 7.2 c 0.22091,0 0.4,0.17909 0.4,0.4 v 3.2 c 0,0.22091 0.17909,0.4 0.4,0.4 h 3.6 v 3.6 c 0,0.22091 -0.17909,0.4 -0.4,0.4 h -3.2 c -0.22091,0 -0.4,0.17909 -0.4,0.4 v 3.2 c 0,0.22091 -0.17909,0.4 -0.4,0.4 h -7.2 c -0.22091,0 -0.4,0.17909 -0.4,0.4 v 3.2 c 0,0.22091 0.17909,0.4 0.4,0.4 h 3.2 c 0.22091,0 0.4,0.17909 0.4,0.4 v 7.2 c 0,0.22091 0.17909,0.4 0.4,0.4 h 3.6 v 4 z M 40,149.6 V 130.4 C 40,130.17909 39.820914,130 39.6,130 H 20.4 c -0.220914,0 -0.4,0.17909 -0.4,0.4 v 19.2 c 0,0.22091 0.179086,0.4 0.4,0.4 h 19.2 c 0.220914,0 0.4,-0.17909 0.4,-0.4 z M 143.6,146 H 140 v -3.6 c 0,-0.22091 0.17909,-0.4 0.4,-0.4 h 3.2 c 0.22091,0 0.4,0.17909 0.4,0.4 v 3.2 c 0,0.22091 -0.17909,0.4 -0.4,0.4 z m -28,0 h -3.2 c -0.22091,0 -0.4,-0.17909 -0.4,-0.4 V 142 h 3.6 c 0.22091,0 0.4,0.17909 0.4,0.4 v 3.6 z m -80,0 H 24.4 c -0.220914,0 -0.4,-0.17909 -0.4,-0.4 v -11.2 c 0,-0.22091 0.179086,-0.4 0.4,-0.4 h 11.2 c 0.220914,0 0.4,0.17909 0.4,0.4 v 11.2 c 0,0.22091 -0.179086,0.4 -0.4,0.4 z m 76,-4 H 108 v -4 h 4 v 4 z m 36,-4 h -3.2 c -0.22091,0 -0.4,-0.17909 -0.4,-0.4 v -3.2 c 0,-0.22091 0.17909,-0.4 0.4,-0.4 h 3.2 c 0.22091,0 0.4,0.17909 0.4,0.4 v 3.2 c 0,0.22091 -0.17909,0.4 -0.4,0.4 z m -80,0 H 64 v -4 h 3.6 c 0.220914,0 0.4,0.17909 0.4,0.4 v 3.6 z m 60.4,-4.4 v -11.2 c 0,-0.22091 -0.17909,-0.4 -0.4,-0.4 h -11.2 c -0.22091,0 -0.4,0.17909 -0.4,0.4 v 11.2 c 0,0.22091 0.17909,0.4 0.4,0.4 h 11.2 c 0.22091,0 0.4,-0.17909 0.4,-0.4 z M 63.6,134 h -3.2 c -0.220914,0 -0.4,-0.17909 -0.4,-0.4 v -3.2 c 0,-0.22091 0.179086,-0.4 0.4,-0.4 h 3.2 c 0.220914,0 0.4,0.17909 0.4,0.4 v 3.6 z m 72.4,-4.4 v -3.2 c 0,-0.22091 -0.17909,-0.4 -0.4,-0.4 h -3.2 c -0.22091,0 -0.4,0.17909 -0.4,0.4 v 3.2 c 0,0.22091 0.17909,0.4 0.4,0.4 h 3.2 c 0.22091,0 0.4,-0.17909 0.4,-0.4 z m -12.4,0.4 h -3.2 c -0.22091,0 -0.4,-0.17909 -0.4,-0.4 v -3.2 c 0,-0.22091 0.17909,-0.4 0.4,-0.4 h 3.2 c 0.22091,0 0.4,0.17909 0.4,0.4 v 3.2 c 0,0.22091 -0.17909,0.4 -0.4,0.4 z m -44,0 H 72.4 C 72.179086,130 72,129.82091 72,129.6 V 122 h 4 v 3.6 c 0,0.22091 0.179086,0.4 0.4,0.4 H 80 v 3.6 c 0,0.22091 -0.179086,0.4 -0.4,0.4 z m -24,0 h -7.2 c -0.220914,0 -0.4,-0.17909 -0.4,-0.4 v -7.2 c 0,-0.22091 0.179086,-0.4 0.4,-0.4 h 3.2 c 0.220914,0 0.4,0.17909 0.4,0.4 v 3.2 c 0,0.22091 0.179086,0.4 0.4,0.4 H 56 v 3.6 c 0,0.22091 -0.179086,0.4 -0.4,0.4 z m 92,-4 H 144 v -7.6 c 0,-0.22091 0.17909,-0.4 0.4,-0.4 h 3.2 c 0.22091,0 0.4,0.17909 0.4,0.4 v 7.2 c 0,0.22091 -0.17909,0.4 -0.4,0.4 z m -80,0 H 56 v -8 h 4 v 3.6 c 0,0.22091 0.179086,0.4 0.4,0.4 H 68 v 3.6 c 0,0.22091 -0.179086,0.4 -0.4,0.4 z m 12,-4 H 76 v -4 h 3.6 c 0.220914,0 0.4,0.17909 0.4,0.4 v 3.6 z m -8,0 H 68 v -4 h 4 v 4 z m -28,0 h -7.2 c -0.220914,0 -0.4,-0.17909 -0.4,-0.4 v -3.2 c 0,-0.22091 0.179086,-0.4 0.4,-0.4 H 44 v 3.6 c 0,0.22091 -0.179086,0.4 -0.4,0.4 z m -12,0 H 28.4 C 28.179086,122 28,121.82091 28,121.6 V 114 h 4 v 7.6 c 0,0.22091 -0.179086,0.4 -0.4,0.4 z m -12,0 h -3.2 c -0.220914,0 -0.4,-0.17909 -0.4,-0.4 v -19.19999 c 0,-0.22092 0.179086,-0.4 0.4,-0.4 H 20 V 105.6 c 0,0.22092 0.179086,0.4 0.4,0.4 h 3.2 c 0.220914,0 0.4,0.17909 0.4,0.4 v 3.6 h -3.6 c -0.220914,0 -0.4,0.17909 -0.4,0.4 v 11.2 c 0,0.22091 -0.179086,0.4 -0.4,0.4 z m 120,-4 H 132 v -3.6 c 0,-0.22091 -0.17909,-0.4 -0.4,-0.4 H 128 v -4 h 3.6 c 0.22091,0 0.4,-0.17909 0.4,-0.4 V 106 h 3.6 c 0.22091,0 0.4,0.17909 0.4,0.4 v 7.2 c 0,0.22091 0.17909,0.4 0.4,0.4 h 3.6 v 3.6 c 0,0.22091 -0.17909,0.4 -0.4,0.4 z m -36,0 h -7.2 c -0.220914,0 -0.4,-0.17909 -0.4,-0.4 v -3.2 c 0,-0.22091 0.179086,-0.4 0.4,-0.4 h 3.2 c 0.220914,0 0.4,-0.17909 0.4,-0.4 v -7.2 c 0,-0.22091 0.17909,-0.4 0.4,-0.4 h 3.2 c 0.22091,0 0.4,-0.17908 0.4,-0.4 v -3.19999 c 0,-0.22092 -0.17909,-0.4 -0.4,-0.4 h -7.2 c -0.220914,0 -0.4,0.17908 -0.4,0.4 V 109.6 c 0,0.22091 -0.179086,0.4 -0.4,0.4 h -3.2 c -0.220914,0 -0.4,-0.17909 -0.4,-0.4 v -3.2 C 92,106.17909 91.820914,106 91.6,106 H 84 v -3.99999 h 7.6 c 0.220914,0 0.4,-0.17909 0.4,-0.4 v -3.600001 h 3.6 c 0.220914,0 0.4,-0.179086 0.4,-0.4 v -3.6 h 3.6 c 0.220914,0 0.4,-0.179086 0.4,-0.4 v -3.6 h 4 v 7.6 c 0,0.220914 0.17909,0.4 0.4,0.4 h 3.2 c 0.22091,0 0.4,0.179086 0.4,0.4 v 3.200001 c 0,0.22091 0.17909,0.4 0.4,0.4 h 11.2 c 0.22091,0 0.4,0.17908 0.4,0.4 V 106 h -7.6 c -0.22091,0 -0.4,0.17909 -0.4,0.4 v 3.2 c 0,0.22091 -0.17909,0.4 -0.4,0.4 h -3.2 c -0.22091,0 -0.4,0.17909 -0.4,0.4 v 3.6 h -3.6 c -0.22091,0 -0.4,0.17909 -0.4,0.4 v 3.6 z m -12,0 H 88.4 C 88.179086,118 88,117.82091 88,117.6 V 114 h 3.6 c 0.220914,0 0.4,0.17909 0.4,0.4 v 3.2 c 0,0.22091 -0.179086,0.4 -0.4,0.4 z m -16,0 H 72 v -4 h 4 v 4 z m -8,0 H 60 v -4 h 3.6 c 0.220914,0 0.4,-0.17909 0.4,-0.4 V 110 h 7.6 c 0.220914,0 0.4,0.17909 0.4,0.4 v 3.6 h -3.6 c -0.220914,0 -0.4,0.17909 -0.4,0.4 v 3.6 z m -12,0 h -3.2 c -0.220914,0 -0.4,-0.17909 -0.4,-0.4 v -3.2 C 52,114.17909 51.820914,114 51.6,114 H 48 v -7.6 c 0,-0.22091 0.179086,-0.4 0.4,-0.4 h 3.2 c 0.220914,0 0.4,0.17909 0.4,0.4 v 3.2 c 0,0.22091 0.179086,0.4 0.4,0.4 h 3.2 c 0.220914,0 0.4,-0.17909 0.4,-0.4 v -7.19999 c 0,-0.22092 0.179086,-0.4 0.4,-0.4 H 60 V 105.6 c 0,0.22092 0.179086,0.4 0.4,0.4 H 64 v 4 h -3.6 c -0.220914,0 -0.4,0.17909 -0.4,0.4 v 3.6 h -3.6 c -0.220914,0 -0.4,0.17909 -0.4,0.4 v 3.6 z m -8,0 H 44 v -4 h 4 v 3.6 c 0,0.22091 -0.179086,0.4 -0.4,0.4 z m 96,-4 H 140 v -11.99999 h 3.6 c 0.22091,0 0.4,0.17908 0.4,0.4 V 105.6 c 0,0.22092 0.17909,0.4 0.4,0.4 h 3.2 c 0.22091,0 0.4,0.17909 0.4,0.4 v 3.2 c 0,0.22091 -0.17909,0.4 -0.4,0.4 h -3.2 c -0.22091,0 -0.4,0.17909 -0.4,0.4 v 3.2 c 0,0.22091 -0.17909,0.4 -0.4,0.4 z m -56,0 H 84.4 C 84.179086,114 84,113.82091 84,113.6 V 110 h 3.6 c 0.220914,0 0.4,0.17909 0.4,0.4 v 3.6 z m -8,0 H 76 v -3.6 c 0,-0.22091 0.179086,-0.4 0.4,-0.4 H 80 v 3.6 c 0,0.22091 -0.179086,0.4 -0.4,0.4 z m -36,0 h -3.2 c -0.220914,0 -0.4,-0.17909 -0.4,-0.4 v -3.2 c 0,-0.22091 0.179086,-0.4 0.4,-0.4 h 3.2 c 0.220914,0 0.4,0.17909 0.4,0.4 v 3.6 z m -8,0 H 32 v -3.6 c 0,-0.22091 0.179086,-0.4 0.4,-0.4 h 3.2 c 0.220914,0 0.4,0.17909 0.4,0.4 v 3.2 c 0,0.22091 -0.179086,0.4 -0.4,0.4 z m -8,0 H 24.4 C 24.179086,114 24,113.82091 24,113.6 V 110 h 3.6 c 0.220914,0 0.4,0.17909 0.4,0.4 v 3.6 z m 100,-4 H 120 v -4 h 3.6 c 0.22091,0 0.4,-0.17908 0.4,-0.4 v -3.19999 c 0,-0.22092 0.17909,-0.4 0.4,-0.4 h 3.2 c 0.22091,0 0.4,-0.17909 0.4,-0.4 v -3.200001 c 0,-0.220914 -0.17909,-0.4 -0.4,-0.4 h -11.2 c -0.22091,0 -0.4,-0.179086 -0.4,-0.4 v -3.6 h 3.6 c 0.22091,0 0.4,-0.179086 0.4,-0.4 v -3.6 h 4 v 3.6 c 0,0.220914 0.17909,0.4 0.4,0.4 h 7.2 c 0.22091,0 0.4,-0.179086 0.4,-0.4 v -3.6 h 3.6 c 0.22091,0 0.4,0.179086 0.4,0.4 v 7.6 h -3.6 c -0.22091,0 -0.4,0.179086 -0.4,0.4 V 106 h -3.6 c -0.22091,0 -0.4,0.17909 -0.4,0.4 v 3.6 z m -44,0 H 80 v -3.6 c 0,-0.22091 0.179086,-0.4 0.4,-0.4 H 84 v 4 z m -8,-4 h -3.2 c -0.220914,0 -0.4,-0.17908 -0.4,-0.4 v -7.599991 h 4 V 105.6 c 0,0.22092 -0.179086,0.4 -0.4,0.4 z m -8,0 H 64 v -3.59999 c 0,-0.22092 -0.179086,-0.4 -0.4,-0.4 H 60 v -4.000001 h 8 V 105.6 c 0,0.22092 -0.179086,0.4 -0.4,0.4 z m -24,0 h -3.2 c -0.220914,0 -0.4,-0.17908 -0.4,-0.4 v -3.59999 h 3.6 c 0.220914,0 0.4,0.17908 0.4,0.4 V 105.6 c 0,0.22092 -0.179086,0.4 -0.4,0.4 z m -8,0 h -3.2 c -0.220914,0 -0.4,-0.17908 -0.4,-0.4 v -3.59999 h 4 V 105.6 c 0,0.22092 -0.179086,0.4 -0.4,0.4 z m 104,-3.99999 h -3.2 c -0.22091,0 -0.4,-0.17909 -0.4,-0.4 v -3.600001 h 4 v 4.000001 z m -56,0 h -3.2 c -0.220914,0 -0.4,-0.17909 -0.4,-0.4 v -3.200001 c 0,-0.220914 -0.179086,-0.4 -0.4,-0.4 H 76 v -3.6 c 0,-0.220914 0.179086,-0.4 0.4,-0.4 h 3.2 c 0.220914,0 0.4,-0.179086 0.4,-0.4 v -3.6 h 4 v 12.000001 z m -32,0 h -3.2 c -0.220914,0 -0.4,-0.17909 -0.4,-0.4 v -3.600001 h 4 v 3.600001 c 0,0.22091 -0.179086,0.4 -0.4,0.4 z m -12,0 H 36 v -4.000001 h 4 v 4.000001 z m -8,0 h -3.2 c -0.220914,0 -0.4,-0.17909 -0.4,-0.4 v -3.200001 c 0,-0.220914 -0.179086,-0.4 -0.4,-0.4 h -3.2 c -0.220914,0 -0.4,0.179086 -0.4,0.4 v 3.200001 c 0,0.22091 -0.179086,0.4 -0.4,0.4 H 20 v -3.600001 c 0,-0.220914 -0.179086,-0.4 -0.4,-0.4 h -3.2 c -0.220914,0 -0.4,-0.179086 -0.4,-0.4 v -7.2 c 0,-0.220914 0.179086,-0.4 0.4,-0.4 h 3.2 c 0.220914,0 0.4,-0.179086 0.4,-0.4 v -7.6 h 3.6 c 0.220914,0 0.4,-0.179086 0.4,-0.4 v -7.2 c 0,-0.220914 0.179086,-0.4 0.4,-0.4 h 3.2 c 0.220914,0 0.4,-0.179086 0.4,-0.4 v -3.2 c 0,-0.220914 0.179086,-0.4 0.4,-0.4 H 32 v 3.6 c 0,0.220914 0.179086,0.4 0.4,0.4 H 40 v 4 h -3.6 c -0.220914,0 -0.4,0.179086 -0.4,0.4 v 3.6 h -7.6 c -0.220914,0 -0.4,0.179086 -0.4,0.4 v 3.6 h -3.6 c -0.220914,0 -0.4,0.179086 -0.4,0.4 v 7.2 c 0,0.220914 0.179086,0.4 0.4,0.4 h 3.2 c 0.220914,0 0.4,-0.179086 0.4,-0.4 v -7.6 h 3.6 c 0.220914,0 0.4,0.179086 0.4,0.4 v 3.2 c 0,0.220914 0.179086,0.4 0.4,0.4 h 3.2 c 0.220914,0 0.4,0.179086 0.4,0.4 v 7.6 h -3.6 c -0.220914,0 -0.4,0.179086 -0.4,0.4 v 3.600001 z m 112,-4.000001 H 140 v -12 h 3.6 c 0.22091,0 0.4,0.179086 0.4,0.4 v 3.2 c 0,0.220914 0.17909,0.4 0.4,0.4 h 3.2 c 0.22091,0 0.4,0.179086 0.4,0.4 v 3.2 c 0,0.220914 -0.17909,0.4 -0.4,0.4 h -3.2 c -0.22091,0 -0.4,0.179086 -0.4,0.4 v 3.2 c 0,0.220914 -0.17909,0.4 -0.4,0.4 z m -52,0 h -3.2 c -0.220914,0 -0.4,-0.179086 -0.4,-0.4 v -7.6 h 8 v 4 h -3.6 c -0.220914,0 -0.4,0.179086 -0.4,0.4 v 3.6 z m -20,0 H 68 v -4 h 3.6 c 0.220914,0 0.4,0.179086 0.4,0.4 v 3.6 z m -12,0 H 52 v -11.6 c 0,-0.220914 0.179086,-0.4 0.4,-0.4 H 56 v 7.6 c 0,0.220914 0.179086,0.4 0.4,0.4 H 60 v 4 z m -12,0 H 40 v -3.6 c 0,-0.220914 0.179086,-0.4 0.4,-0.4 h 3.2 c 0.220914,0 0.4,-0.179086 0.4,-0.4 v -3.2 c 0,-0.220914 -0.179086,-0.4 -0.4,-0.4 h -3.2 c -0.220914,0 -0.4,-0.179086 -0.4,-0.4 v -3.6 h 7.6 c 0.220914,0 0.4,0.179086 0.4,0.4 v 11.6 z m 68,-4 h -7.2 c -0.22091,0 -0.4,-0.179086 -0.4,-0.4 v -3.2 c 0,-0.220914 -0.17909,-0.4 -0.4,-0.4 H 104 v -4 h 3.6 c 0.22091,0 0.4,-0.179086 0.4,-0.4 v -3.6 h 3.6 c 0.22091,0 0.4,0.179086 0.4,0.4 v 3.2 c 0,0.220914 0.17909,0.4 0.4,0.4 h 3.2 c 0.22091,0 0.4,-0.179086 0.4,-0.4 v -7.2 c 0,-0.220914 0.17909,-0.4 0.4,-0.4 h 3.6 v 3.6 c 0,0.220914 0.17909,0.4 0.4,0.4 h 3.2 c 0.22091,0 0.4,0.179086 0.4,0.4 v 3.6 h -3.6 c -0.22091,0 -0.4,0.179086 -0.4,0.4 v 3.6 h -3.6 c -0.22091,0 -0.4,0.179086 -0.4,0.4 v 3.6 z m -48,0 H 60 v -3.6 c 0,-0.220914 0.179086,-0.4 0.4,-0.4 h 7.2 c 0.220914,0 0.4,0.179086 0.4,0.4 v 3.6 z m 64,-4 H 124 v -4 h 7.6 c 0.22091,0 0.4,0.179086 0.4,0.4 v 3.6 z m -32,0 H 96 v -3.6 c 0,-0.220914 0.179086,-0.4 0.4,-0.4 h 3.6 v 4 z m -12,0 H 84 v -3.6 c 0,-0.220914 0.179086,-0.4 0.4,-0.4 h 3.2 c 0.220914,0 0.4,0.179086 0.4,0.4 v 3.6 z m -8,0 h -7.2 c -0.220914,0 -0.4,-0.179086 -0.4,-0.4 v -7.2 c 0,-0.220914 0.179086,-0.4 0.4,-0.4 H 76 v 3.6 c 0,0.220914 0.179086,0.4 0.4,0.4 h 3.2 c 0.220914,0 0.4,0.179086 0.4,0.4 v 3.6 z m 60,-4 h -3.2 c -0.22091,0 -0.4,-0.179086 -0.4,-0.4 v -3.2 c 0,-0.220914 0.17909,-0.4 0.4,-0.4 h 3.6 v 4 z m -36,0 H 100 v -3.6 c 0,-0.220914 -0.179086,-0.4 -0.4,-0.4 h -3.2 c -0.220914,0 -0.4,-0.179086 -0.4,-0.4 v -3.2 c 0,-0.220914 -0.179086,-0.4 -0.4,-0.4 H 92 v -3.6 c 0,-0.220914 -0.179086,-0.4 -0.4,-0.4 h -7.2 c -0.220914,0 -0.4,0.179086 -0.4,0.4 v 3.6 h -3.6 c -0.220914,0 -0.4,0.179086 -0.4,0.4 v 3.2 c 0,0.220914 -0.179086,0.4 -0.4,0.4 H 76 v -3.6 c 0,-0.220914 -0.179086,-0.4 -0.4,-0.4 h -7.2 c -0.220914,0 -0.4,0.179086 -0.4,0.4 v 3.2 c 0,0.220914 -0.179086,0.4 -0.4,0.4 h -3.2 c -0.220914,0 -0.4,-0.179086 -0.4,-0.4 v -7.2 c 0,-0.220914 -0.179086,-0.4 -0.4,-0.4 H 60 v -3.6 c 0,-0.220914 -0.179086,-0.4 -0.4,-0.4 h -3.2 c -0.220914,0 -0.4,0.179086 -0.4,0.4 v 3.6 h -3.6 c -0.220914,0 -0.4,-0.179086 -0.4,-0.4 v -7.2 c 0,-0.220914 -0.179086,-0.4 -0.4,-0.4 h -3.2 c -0.220914,0 -0.4,0.179086 -0.4,0.4 v 3.2 c 0,0.220914 -0.179086,0.4 -0.4,0.4 H 44 v -3.6 c 0,-0.220914 -0.179086,-0.4 -0.4,-0.4 h -3.2 c -0.220914,0 -0.4,-0.179086 -0.4,-0.4 v -3.6 h 3.6 c 0.220914,0 0.4,-0.179086 0.4,-0.4 v -3.2 c 0,-0.220914 -0.179086,-0.4 -0.4,-0.4 H 40 v -3.6 c 0,-0.220914 0.179086,-0.4 0.4,-0.4 h 19.2 c 0.220914,0 0.4,0.179086 0.4,0.4 v 3.2 c 0,0.220914 -0.179086,0.4 -0.4,0.4 h -3.2 c -0.220914,0 -0.4,0.179086 -0.4,0.4 v 7.2 c 0,0.220914 0.179086,0.4 0.4,0.4 h 3.2 c 0.220914,0 0.4,-0.179086 0.4,-0.4 v -3.2 c 0,-0.220914 0.179086,-0.4 0.4,-0.4 h 7.2 c 0.220914,0 0.4,0.179086 0.4,0.4 v 3.2 c 0,0.220914 -0.179086,0.4 -0.4,0.4 h -3.2 c -0.220914,0 -0.4,0.179086 -0.4,0.4 v 3.2 c 0,0.220914 0.179086,0.4 0.4,0.4 h 3.2 c 0.220914,0 0.4,0.179086 0.4,0.4 v 3.2 c 0,0.220914 0.179086,0.4 0.4,0.4 h 3.2 c 0.220914,0 0.4,-0.179086 0.4,-0.4 v -15.2 c 0,-0.220914 -0.179086,-0.4 -0.4,-0.4 h -7.2 c -0.220914,0 -0.4,-0.179086 -0.4,-0.4 v -11.2 c 0,-0.220914 0.179086,-0.4 0.4,-0.4 H 68 v 7.6 c 0,0.220914 0.179086,0.4 0.4,0.4 h 15.2 c 0.220914,0 0.4,0.179086 0.4,0.4 v 3.6 h -7.6 c -0.220914,0 -0.4,0.179086 -0.4,0.4 v 3.2 c 0,0.220914 0.179086,0.4 0.4,0.4 h 3.2 c 0.220914,0 0.4,0.179086 0.4,0.4 v 7.6 h -3.6 c -0.220914,0 -0.4,0.179086 -0.4,0.4 v 3.2 c 0,0.220914 0.179086,0.4 0.4,0.4 h 3.2 c 0.220914,0 0.4,-0.179086 0.4,-0.4 v -3.6 h 7.6 c 0.220914,0 0.4,-0.179086 0.4,-0.4 v -3.2 c 0,-0.220914 -0.179086,-0.4 -0.4,-0.4 h -3.2 c -0.220914,0 -0.4,-0.179086 -0.4,-0.4 v -7.6 h 7.6 c 0.220914,0 0.4,-0.179086 0.4,-0.4 v -3.2 c 0,-0.220914 0.179086,-0.4 0.4,-0.4 h 3.2 c 0.220914,0 0.4,0.179086 0.4,0.4 v 3.2 c 0,0.220914 0.179086,0.4 0.4,0.4 h 3.2 c 0.220914,0 0.4,0.179086 0.4,0.4 v 7.6 h -4 v -3.6 c 0,-0.220914 -0.179086,-0.4 -0.4,-0.4 h -3.2 c -0.220914,0 -0.4,0.179086 -0.4,0.4 v 3.2 c 0,0.220914 0.179086,0.4 0.4,0.4 H 96 v 7.6 c 0,0.220914 0.179086,0.4 0.4,0.4 h 7.2 c 0.22091,0 0.4,-0.179086 0.4,-0.4 v -3.6 h 3.6 c 0.22091,0 0.4,0.179086 0.4,0.4 v 3.2 c 0,0.220914 0.17909,0.4 0.4,0.4 h 3.2 c 0.22091,0 0.4,0.179086 0.4,0.4 v 3.2 c 0,0.220914 -0.17909,0.4 -0.4,0.4 h -3.2 c -0.22091,0 -0.4,0.179086 -0.4,0.4 v 3.6 h -3.6 c -0.22091,0 -0.4,0.179086 -0.4,0.4 v 3.6 z m -44,0 H 56 v -4 h 3.6 c 0.220914,0 0.4,0.179086 0.4,0.4 v 3.2 c 0,0.220914 -0.179086,0.4 -0.4,0.4 z m -20,0 h -3.2 c -0.220914,0 -0.4,-0.179086 -0.4,-0.4 v -3.6 h 4 v 4 z m 104,-4 H 140 v -7.6 c 0,-0.220914 0.17909,-0.4 0.4,-0.4 h 7.2 c 0.22091,0 0.4,0.179086 0.4,0.4 v 3.2 c 0,0.220914 -0.17909,0.4 -0.4,0.4 h -3.2 c -0.22091,0 -0.4,0.179086 -0.4,0.4 v 3.2 c 0,0.220914 -0.17909,0.4 -0.4,0.4 z m -12,0 h -3.2 c -0.22091,0 -0.4,-0.179086 -0.4,-0.4 v -3.2 c 0,-0.220914 0.17909,-0.4 0.4,-0.4 h 3.2 c 0.22091,0 0.4,0.179086 0.4,0.4 v 3.2 c 0,0.220914 -0.17909,0.4 -0.4,0.4 z m -40,0 h -7.2 c -0.220914,0 -0.4,-0.179086 -0.4,-0.4 v -3.6 h 8 v 3.6 c 0,0.220914 -0.179086,0.4 -0.4,0.4 z m -36,0 h -7.2 c -0.220914,0 -0.4,-0.179086 -0.4,-0.4 v -3.2 c 0,-0.220914 0.179086,-0.4 0.4,-0.4 H 56 v 4 z m -12,0 H 40 v -4 h 3.6 c 0.220914,0 0.4,0.179086 0.4,0.4 v 3.2 c 0,0.220914 -0.179086,0.4 -0.4,0.4 z m -24,0 h -3.2 c -0.220914,0 -0.4,-0.179086 -0.4,-0.4 v -11.2 c 0,-0.220914 0.179086,-0.4 0.4,-0.4 h 3.2 c 0.220914,0 0.4,0.179086 0.4,0.4 v 11.6 z m 104,-4 H 120 v -4 h 4 v 3.6 c 0,0.220914 -0.17909,0.4 -0.4,0.4 z m -64,0 H 56 v -4 h 4 v 3.6 c 0,0.220914 -0.179086,0.4 -0.4,0.4 z m 76,-4 H 124 v -4 h 3.6 c 0.22091,0 0.4,-0.179086 0.4,-0.4 v -7.2 c 0,-0.220914 0.17909,-0.4 0.4,-0.4 h 7.6 v 4 h -3.6 c -0.22091,0 -0.4,0.179086 -0.4,0.4 v 3.2 c 0,0.220914 0.17909,0.4 0.4,0.4 h 3.6 v 3.6 c 0,0.220914 -0.17909,0.4 -0.4,0.4 z m -16,0 h -3.2 c -0.22091,0 -0.4,-0.179086 -0.4,-0.4 v -3.2 c 0,-0.220914 -0.17909,-0.4 -0.4,-0.4 h -3.2 c -0.22091,0 -0.4,-0.179086 -0.4,-0.4 v -7.6 h 7.6 c 0.22091,0 0.4,-0.179086 0.4,-0.4 v -3.6 h 4 v 12 h -3.6 c -0.22091,0 -0.4,0.179086 -0.4,0.4 v 3.6 z m -76,0 H 40 v -3.6 c 0,-0.220914 0.179086,-0.4 0.4,-0.4 H 44 v 3.6 c 0,0.220914 -0.179086,0.4 -0.4,0.4 z m 96,-4 H 136 v -4 h 4 v 3.6 c 0,0.220914 -0.17909,0.4 -0.4,0.4 z m -36,0 h -3.2 c -0.22091,0 -0.4,-0.179086 -0.4,-0.4 v -3.6 h 4 v 4 z m -68,0 H 32 v -8 h 4 v 7.6 c 0,0.220914 -0.179086,0.4 -0.4,0.4 z m 108,-4 H 140 v -3.6 c 0,-0.220914 -0.17909,-0.4 -0.4,-0.4 H 136 v -4 h 3.6 c 0.22091,0 0.4,-0.179086 0.4,-0.4 v -3.2 c 0,-0.220914 0.17909,-0.4 0.4,-0.4 h 3.2 c 0.22091,0 0.4,0.179086 0.4,0.4 v 3.2 c 0,0.220914 0.17909,0.4 0.4,0.4 h 3.2 c 0.22091,0 0.4,0.179086 0.4,0.4 v 3.2 c 0,0.220914 -0.17909,0.4 -0.4,0.4 h -3.2 c -0.22091,0 -0.4,0.179086 -0.4,0.4 v 3.2 c 0,0.220914 -0.17909,0.4 -0.4,0.4 z m -36,0 H 104 v -3.6 c 0,-0.220914 0.17909,-0.4 0.4,-0.4 h 3.6 v 3.6 c 0,0.220914 -0.17909,0.4 -0.4,0.4 z m -80,0 H 16.4 c -0.220914,0 -0.4,-0.179086 -0.4,-0.4 v -11.2 c 0,-0.220914 0.179086,-0.4 0.4,-0.4 h 19.2 c 0.220914,0 0.4,0.179086 0.4,0.4 v 3.6 h -3.6 c -0.220914,0 -0.4,0.179086 -0.4,0.4 v 3.6 h -4 v -3.6 c 0,-0.220914 -0.179086,-0.4 -0.4,-0.4 h -3.2 c -0.220914,0 -0.4,0.179086 -0.4,0.4 v 3.2 c 0,0.220914 0.179086,0.4 0.4,0.4 H 28 v 3.6 c 0,0.220914 -0.179086,0.4 -0.4,0.4 z m 84,-4 H 108 v -4 h 3.6 c 0.22091,0 0.4,0.179086 0.4,0.4 v 3.6 z m -59.6,-0.4 v -3.2 c 0,-0.220914 -0.179086,-0.4 -0.4,-0.4 h -3.2 c -0.220914,0 -0.4,0.179086 -0.4,0.4 v 3.2 c 0,0.220914 0.179086,0.4 0.4,0.4 h 3.2 c 0.220914,0 0.4,-0.179086 0.4,-0.4 z m -12.4,0.4 H 36 v -4 h 4 v 4 z m 96,-4 h -3.2 c -0.22091,0 -0.4,-0.179086 -0.4,-0.4 v -3.2 c 0,-0.220914 0.17909,-0.4 0.4,-0.4 h 3.2 c 0.22091,0 0.4,0.179086 0.4,0.4 v 3.6 z m -8,0 H 124 v -3.6 c 0,-0.220914 0.17909,-0.4 0.4,-0.4 h 3.2 c 0.22091,0 0.4,0.179086 0.4,0.4 v 3.2 c 0,0.220914 -0.17909,0.4 -0.4,0.4 z m -8,0 h -3.2 c -0.22091,0 -0.4,-0.179086 -0.4,-0.4 v -3.6 h 3.6 c 0.22091,0 0.4,0.179086 0.4,0.4 v 3.6 z m -12,0 h -3.2 c -0.22091,0 -0.4,-0.179086 -0.4,-0.4 v -3.2 c 0,-0.220914 -0.17909,-0.4 -0.4,-0.4 h -3.2 c -0.22091,0 -0.4,-0.179086 -0.4,-0.4 v -3.6 h 3.6 c 0.22091,0 0.4,-0.179086 0.4,-0.4 v -3.2 c 0,-0.220914 -0.17909,-0.4 -0.4,-0.4 h -3.2 c -0.22091,0 -0.4,0.179086 -0.4,0.4 v 3.6 h -3.6 c -0.220914,0 -0.4,-0.179086 -0.4,-0.4 v -11.6 h 8 v 3.6 c 0,0.220914 0.17909,0.4 0.4,0.4 h 3.6 v 7.6 c 0,0.220914 0.17909,0.4 0.4,0.4 h 3.2 c 0.22091,0 0.4,-0.179086 0.4,-0.4 v -7.6 h 3.6 c 0.22091,0 0.4,0.179086 0.4,0.4 v 11.6 h -7.6 c -0.22091,0 -0.4,0.179086 -0.4,0.4 v 3.6 z m 40,-8 h -27.2 c -0.22091,0 -0.4,-0.179086 -0.4,-0.4 v -27.2 c 0,-0.220914 0.17909,-0.4 0.4,-0.4 h 27.2 c 0.22091,0 0.4,0.179086 0.4,0.4 v 27.2 c 0,0.220914 -0.17909,0.4 -0.4,0.4 z m -56,0 h -3.2 c -0.220914,0 -0.4,-0.179086 -0.4,-0.4 v -3.2 c 0,-0.220914 0.179086,-0.4 0.4,-0.4 h 3.2 c 0.220914,0 0.4,0.179086 0.4,0.4 v 3.2 c 0,0.220914 -0.179086,0.4 -0.4,0.4 z m -8,0 h -3.2 c -0.220914,0 -0.4,-0.179086 -0.4,-0.4 v -3.6 h 3.6 c 0.220914,0 0.4,0.179086 0.4,0.4 v 3.2 c 0,0.220914 -0.179086,0.4 -0.4,0.4 z m -8,0 h -3.2 c -0.220914,0 -0.4,-0.179086 -0.4,-0.4 v -3.2 c 0,-0.220914 -0.179086,-0.4 -0.4,-0.4 H 68 v -4 h 3.6 c 0.220914,0 0.4,-0.179086 0.4,-0.4 v -7.2 c 0,-0.220914 0.179086,-0.4 0.4,-0.4 h 19.2 c 0.220914,0 0.4,-0.179086 0.4,-0.4 v -3.2 c 0,-0.220914 0.179086,-0.4 0.4,-0.4 H 96 v 8 h -3.6 c -0.220914,0 -0.4,0.179086 -0.4,0.4 v 3.2 c 0,0.220914 -0.179086,0.4 -0.4,0.4 H 80.4 c -0.220914,0 -0.4,0.179086 -0.4,0.4 v 3.6 h -3.6 c -0.220914,0 -0.4,0.179086 -0.4,0.4 v 3.2 c 0,0.220914 -0.179086,0.4 -0.4,0.4 z m -16,0 h -3.2 c -0.220914,0 -0.4,-0.179086 -0.4,-0.4 v -11.6 h 4 v 11.6 c 0,0.220914 -0.179086,0.4 -0.4,0.4 z m -8,0 h -3.2 c -0.220914,0 -0.4,-0.179086 -0.4,-0.4 v -7.2 c 0,-0.220914 0.179086,-0.4 0.4,-0.4 h 3.2 c 0.220914,0 0.4,0.179086 0.4,0.4 v 7.2 c 0,0.220914 -0.179086,0.4 -0.4,0.4 z m -8,0 H 16.4 c -0.220914,0 -0.4,-0.179086 -0.4,-0.4 v -27.2 c 0,-0.220914 0.179086,-0.4 0.4,-0.4 h 27.2 c 0.220914,0 0.4,0.179086 0.4,0.4 v 27.2 c 0,0.220914 -0.179086,0.4 -0.4,0.4 z m 100.4,-4.4 v -19.2 c 0,-0.220914 -0.17909,-0.4 -0.4,-0.4 h -19.2 c -0.22091,0 -0.4,0.179086 -0.4,0.4 v 19.2 c 0,0.220914 0.17909,0.4 0.4,0.4 h 19.2 c 0.22091,0 0.4,-0.179086 0.4,-0.4 z m -104,0 v -19.2 c 0,-0.220914 -0.179086,-0.4 -0.4,-0.4 H 20.4 c -0.220914,0 -0.4,0.179086 -0.4,0.4 v 19.2 c 0,0.220914 0.179086,0.4 0.4,0.4 h 19.2 c 0.220914,0 0.4,-0.179086 0.4,-0.4 z m 99.6,-3.6 h -11.2 c -0.22091,0 -0.4,-0.179086 -0.4,-0.4 v -11.2 c 0,-0.220914 0.17909,-0.4 0.4,-0.4 h 11.2 c 0.22091,0 0.4,0.179086 0.4,0.4 v 11.2 c 0,0.220914 -0.17909,0.4 -0.4,0.4 z m -28,0 H 108 v -4 h 4 v 4 z m -44,0 h -3.2 c -0.220914,0 -0.4,-0.179086 -0.4,-0.4 v -3.6 h 3.6 c 0.220914,0 0.4,0.179086 0.4,0.4 v 3.6 z m -32,0 H 24.4 c -0.220914,0 -0.4,-0.179086 -0.4,-0.4 v -11.2 c 0,-0.220914 0.179086,-0.4 0.4,-0.4 h 11.2 c 0.220914,0 0.4,0.179086 0.4,0.4 v 11.2 c 0,0.220914 -0.179086,0.4 -0.4,0.4 z m 80,-4 H 112 v -3.6 c 0,-0.220914 0.17909,-0.4 0.4,-0.4 h 3.2 c 0.22091,0 0.4,0.179086 0.4,0.4 v 3.2 c 0,0.220914 -0.17909,0.4 -0.4,0.4 z m -8,0 H 104 v -3.6 c 0,-0.220914 -0.17909,-0.4 -0.4,-0.4 h -3.2 c -0.22091,0 -0.4,-0.179086 -0.4,-0.4 v -3.6 h 7.6 c 0.22091,0 0.4,0.179086 0.4,0.4 v 7.6 z m -44,0 H 60 v -3.6 c 0,-0.220914 -0.179086,-0.4 -0.4,-0.4 h -3.2 c -0.220914,0 -0.4,0.179086 -0.4,0.4 v 3.6 h -7.6 c -0.220914,0 -0.4,-0.179086 -0.4,-0.4 v -3.2 c 0,-0.220914 0.179086,-0.4 0.4,-0.4 h 3.2 c 0.220914,0 0.4,-0.179086 0.4,-0.4 v -3.2 c 0,-0.220914 -0.179086,-0.4 -0.4,-0.4 h -3.2 c -0.220914,0 -0.4,-0.179086 -0.4,-0.4 v -3.2 c 0,-0.220914 0.179086,-0.4 0.4,-0.4 h 3.2 c 0.220914,0 0.4,-0.179086 0.4,-0.4 v -3.2 c 0,-0.220914 0.179086,-0.4 0.4,-0.4 h 3.2 c 0.220914,0 0.4,0.179086 0.4,0.4 v 7.2 c 0,0.220914 0.179086,0.4 0.4,0.4 h 3.2 c 0.220914,0 0.4,-0.179086 0.4,-0.4 v -3.2 c 0,-0.220914 0.179086,-0.4 0.4,-0.4 h 7.2 c 0.220914,0 0.4,-0.179086 0.4,-0.4 v -3.2 c 0,-0.220914 0.179086,-0.4 0.4,-0.4 h 3.2 c 0.220914,0 0.4,0.179086 0.4,0.4 v 3.2 c 0,0.220914 0.179086,0.4 0.4,0.4 h 3.2 c 0.220914,0 0.4,-0.179086 0.4,-0.4 v -3.2 c 0,-0.220914 0.179086,-0.4 0.4,-0.4 h 7.2 c 0.220914,0 0.4,0.179086 0.4,0.4 v 7.2 c 0,0.220914 -0.179086,0.4 -0.4,0.4 H 64.4 c -0.220914,0 -0.4,0.179086 -0.4,0.4 v 7.6 z m 36,-8 H 96 v -3.6 c 0,-0.220914 -0.179086,-0.4 -0.4,-0.4 h -7.2 c -0.220914,0 -0.4,-0.179086 -0.4,-0.4 v -3.2 c 0,-0.220914 0.179086,-0.4 0.4,-0.4 h 23.2 c 0.22091,0 0.4,0.179086 0.4,0.4 v 3.2 c 0,0.220914 -0.17909,0.4 -0.4,0.4 h -11.2 c -0.22091,0 -0.4,0.179086 -0.4,0.4 v 3.6 z"
         id="path832"
         style="fill:#1a1a1a;stroke-width:1.26349" />
    </g>
    <text
       xml:space="preserve"
       style="font-size:6.5277px;line-height:1.25;font-family:sans-serif;word-spacing:0px;fill:#1a1a1a;stroke-width:0.264583"
       x="121.87295"
       y="205.31389"
       id="text2545"
       transform="scale(1.0249469,0.9756603)"><tspan
         sodipodi:role="line"
         id="tspan2543"
         style="font-style:normal;font-variant:normal;font-weight:normal;font-stretch:normal;font-family:Arial;-inkscape-font-specification:Arial;fill:#1a1a1a;stroke-width:0.264583"
         x="121.87295"
         y="205.31389">Slides</tspan></text>
  </g>
</svg>
