<svg version="1.1" id="Layer_1" xmlns="http://www.w3.org/2000/svg" xmlns:xlink="http://www.w3.org/1999/xlink" x="0px" y="0px" viewBox="0 0 464.9 56.8" style="enable-background:new 0 0 464.9 56.8;" xml:space="preserve">
                    <g>
                        <path class="logo-text" d="M140.4,25.7c0,0-7-0.8-9.9-0.8c-4.2,0-6.4,1.5-6.4,4.5c0,3.2,1.8,4,7.7,5.6c7.2,2,9.8,3.9,9.8,9.8
                    c0,7.5-4.7,10.8-11.5,10.8c-4.5,0-11.2-1.4-11.2-1.4l0.6-4.5c0,0,6.8,0.9,10.3,0.9c4.3,0,6.2-1.9,6.2-5.5c0-2.9-1.6-3.9-6.8-5.2
                    c-7.4-1.9-10.6-4.2-10.6-10.1c0-6.9,4.6-9.8,11.4-9.8c4.4,0,10.9,1.2,10.9,1.2L140.4,25.7z"></path>
                        <path class="logo-text" d="M155.3,20.3h9.4l7.7,26.8l7.7-26.8h9.3v35h-5v-30h-0.5l-8.6,28h-5.8l-8.6-28h-0.5v30h-5L155.3,20.3L155.3,20.3
                    z"></path>
                        <path class="logo-text" d="M275.3,20.3h26v5h-10v30h-6v-30h-10V20.3z"></path>
                        <path class="logo-text" d="M325,20.3c6.8,0,10.5,2.7,10.5,9.1c0,4.2-1.3,6.3-4.1,7.8c3,1.2,4.9,3.5,4.9,8.2c0,7-4.3,9.9-10.9,9.9h-13.1
                    v-35L325,20.3L325,20.3z M317.3,25.3v10h7.6c3.4,0,4.9-1.8,4.9-5.2c0-3.3-1.7-4.8-5.1-4.8C324.7,25.3,317.3,25.3,317.3,25.3z
                     M317.3,40.3v10h7.8c3.5,0,5.5-1,5.5-5.1c0-3.9-2.9-4.9-5.6-4.9H317.3z"></path>
                        <path class="logo-text" d="M350.3,20.3h21v5h-16v10h13v5h-13v10h16v5h-21V20.3z"></path>
                        <path class="logo-text" d="M391.6,20.3h11.1l8.5,35h-5.6l-2.5-10h-11.8l-2.5,10h-5.6L391.6,20.3z M392.4,40.3h9.6l-3.5-15H396L392.4,40.3
                    z"></path>
                        <path class="logo-text" d="M429.3,44.3v11h-6v-35h13.3c7.6,0,11.6,4.5,11.6,12.1c0,4.9-2,9.5-5.6,11.2l5.7,11.7h-6.1l-5-11
                    C437.2,44.3,429.3,44.3,429.3,44.3z M436.6,25.3h-7.3v15h7.4c4.2,0,5.8-4,5.8-7.6C442.5,28.8,440.6,25.3,436.6,25.3z"></path>
                        <path class="logo-text" d="M210.2,20.3h11.1l8.5,35h-5.6l-2.5-10h-11.8l-2.5,10h-5.6L210.2,20.3z M211,40.3h9.6l-3.6-15h-2.5L211,40.3z"></path>
                        <path class="logo-text" d="M247.3,44.3v11h-5v-35h12.9c7.6,0,11.6,4.5,11.6,12.1c0,4.9-2,9.5-5.6,11.2l5.7,11.7h-6.1l-5-11
                    C255.8,44.3,247.3,44.3,247.3,44.3z M255.2,25.3h-7.9v15h8c4.2,0,5.8-4,5.8-7.6C261.1,28.8,259.2,25.3,255.2,25.3z"></path>
                    </g>
                    <path class="logo-icon" d="M58.6,48.3h-16l-2.8,9h21.5L58.6,48.3z M101.2,57.3l-8.3-25.9l5.4-16.7l-20-14.6L64.1,10.3h-27L23,0L3,14.6
                l5.4,16.8L0,57.3h26.3l-2-6.5l26.3-19.2l26.3,19.3l-2,6.5L101.2,57.3L101.2,57.3z"></path>
                    <path class="logo-text" d="M457,54.9h-0.7v-3.7H455v-0.6h3.2v0.6H457V54.9L457,54.9z"></path>
                    <path class="logo-text" d="M461,54.9l-1.2-3.6l0,0c0,0.5,0,1,0,1.5v2.1h-0.6v-4.3h1l1.2,3.4l0,0l1.2-3.4h1v4.3h-0.7v-2.1
                c0-0.2,0-0.5,0-0.8s0-0.5,0-0.6l0,0l-1.3,3.6L461,54.9L461,54.9z"></path>
                </svg>